<svg width="140" height="37" viewBox="0 0 140 37" fill="none" xmlns="http://www.w3.org/2000/svg">
<g clip-path="url(#clip0_1_300)">
<path d="M12.9261 27.1343C12.9257 27.1707 12.9255 27.2073 12.9255 27.2438C12.9255 27.5244 12.9356 27.7997 12.9557 28.0697H18.5697C18.5192 27.8084 18.4939 27.5331 18.4939 27.2438C18.4939 27.2071 18.4944 27.1706 18.4952 27.1343H12.9261Z" fill="black"/>
<path d="M6.07627 27.1343V28.0697H0.75V27.1343H6.07627Z" fill="black"/>
<path d="M12.9753 26.1821H18.6257C18.6975 25.9096 18.7987 25.6501 18.9292 25.4037C18.96 25.3501 18.992 25.2978 19.0251 25.2466H13.1114C13.0517 25.5511 13.0063 25.8629 12.9753 26.1821Z" fill="black"/>
<path d="M6.07627 25.2466V26.1821H0.75V25.2466H6.07627Z" fill="black"/>
<path d="M12.428 24.2948C12.2054 24.0822 11.8959 23.9193 11.4994 23.806C11.0636 23.693 10.4422 23.6365 9.63522 23.6365H6.07627V24.2948H0.75V23.3594H12.7099V24.2948H12.428Z" fill="black"/>
<path d="M13.3521 24.2948H19.9495C20.0263 24.2422 20.1058 24.1921 20.1879 24.1448C20.7206 23.8383 21.3339 23.6849 22.028 23.6849C22.722 23.6849 23.3273 23.8383 23.8437 24.1448C23.9259 24.1921 24.0052 24.2422 24.0817 24.2948H30.6639C30.5938 24.0793 30.5155 23.868 30.429 23.6607C30.388 23.559 30.3453 23.4585 30.3011 23.3594H13.7108C13.6651 23.4585 13.621 23.559 13.5786 23.6607C13.495 23.868 13.4195 24.0793 13.3521 24.2948Z" fill="black"/>
<path d="M14.2222 22.4072H29.802C29.6014 22.0784 29.3791 21.7665 29.1351 21.4717H14.8961C14.6507 21.7665 14.4261 22.0784 14.2222 22.4072Z" fill="black"/>
<path d="M15.8332 20.5205H28.2049C27.7996 20.1684 27.3595 19.8566 26.8846 19.585H17.1589C16.6859 19.8566 16.2441 20.1684 15.8332 20.5205Z" fill="black"/>
<path d="M12.7102 19.585V20.5205H0.653735C0.626941 20.3584 0.594559 20.2109 0.556607 20.078C0.508749 19.8934 0.447836 19.729 0.373901 19.585H12.7102Z" fill="black"/>
<path d="M36.7136 19.585C36.6908 19.5959 36.6681 19.6069 36.6453 19.618C36.1165 19.8794 35.6303 20.1803 35.1868 20.5205H47.0946C47.0978 20.51 47.1009 20.4997 47.1042 20.4896C47.2172 20.1345 47.3948 19.8601 47.6368 19.6664V19.585H36.7136Z" fill="black"/>
<path d="M52.1047 19.585C51.6317 19.8566 51.1899 20.1684 50.779 20.5205H63.1508C62.7455 20.1684 62.3053 19.8566 61.8304 19.585H52.1047Z" fill="black"/>
<path d="M89.4307 19.585H96.9944C97.2789 19.7377 97.5418 19.9101 97.7829 20.1021C97.9482 20.2351 98.1009 20.3747 98.2427 20.5205H89.4307V19.585Z" fill="black"/>
<path d="M74.2574 19.585H80.3448C80.2704 19.7215 80.2038 19.8778 80.1451 20.0538C80.0996 20.1904 80.0612 20.3459 80.03 20.5205H74.5165C74.493 20.3584 74.4646 20.2109 74.4315 20.078C74.3836 19.8934 74.3255 19.729 74.2574 19.585Z" fill="black"/>
<path d="M67.0341 19.585H73.0474C72.9792 19.729 72.9212 19.8934 72.8733 20.078C72.8401 20.2109 72.8117 20.3584 72.7883 20.5205H67.2931C67.2696 20.3584 67.2414 20.2109 67.2081 20.078C67.1602 19.8934 67.1023 19.729 67.0341 19.585Z" fill="black"/>
<path d="M64.0803 21.4717H49.8413C49.5958 21.7665 49.3713 22.0784 49.1674 22.4072H64.7472C64.5466 22.0784 64.3242 21.7665 64.0803 21.4717Z" fill="black"/>
<path d="M67.3777 22.4072V21.9414C67.3777 21.7776 67.3753 21.621 67.3705 21.4717H72.7113C72.7065 21.621 72.704 21.7776 72.704 21.9414V22.4072H67.3777Z" fill="black"/>
<path d="M65.2462 23.3594H48.656C48.6104 23.4585 48.5662 23.559 48.5238 23.6607C48.4402 23.868 48.3647 24.0793 48.2972 24.2948H54.8947C54.9715 24.2422 55.051 24.1921 55.1331 24.1448C55.6658 23.8383 56.2791 23.6849 56.9732 23.6849C57.6672 23.6849 58.2725 23.8383 58.7889 24.1448C58.8711 24.1921 58.9504 24.2422 59.0268 24.2948H65.609C65.5391 24.0793 65.4608 23.868 65.3742 23.6607C65.3332 23.559 65.2905 23.4585 65.2462 23.3594Z" fill="black"/>
<path d="M67.3774 24.2948V23.3594H72.7037V24.2948H67.3774Z" fill="black"/>
<path d="M65.8593 25.2466H59.9329C59.9646 25.2978 59.9949 25.3501 60.0241 25.4037C60.1618 25.6501 60.2686 25.9096 60.3445 26.1821H66.0004C65.9682 25.8629 65.9212 25.5511 65.8593 25.2466Z" fill="black"/>
<path d="M67.3774 26.1821V25.2466H72.7037V26.1821H67.3774Z" fill="black"/>
<path d="M66.0525 27.1343H60.4833C60.4842 27.1706 60.4847 27.2071 60.4847 27.2438C60.4847 27.5331 60.458 27.8084 60.4047 28.0697H66.0218C66.0427 27.7997 66.053 27.5244 66.053 27.2438C66.053 27.2073 66.0529 27.1707 66.0525 27.1343Z" fill="black"/>
<path d="M67.3774 28.0697V27.1343H72.7037V28.0697H67.3774Z" fill="black"/>
<path d="M65.9008 29.0215H60.0586C60.0473 29.0423 60.0356 29.063 60.0238 29.0836C59.8404 29.4197 59.6089 29.7109 59.3293 29.957H65.6819C65.7709 29.6531 65.8439 29.3414 65.9008 29.0215Z" fill="black"/>
<path d="M67.3774 29.957V29.0215H72.7037V29.957H67.3774Z" fill="black"/>
<path d="M65.3407 30.9092H48.5587C48.6982 31.2344 48.8541 31.5461 49.0261 31.8447H64.8854C65.0542 31.5461 65.206 31.2344 65.3407 30.9092Z" fill="black"/>
<path d="M67.3774 31.8447V30.9092H72.7037V31.8447H67.3774Z" fill="black"/>
<path d="M64.2546 32.7969H49.6644C49.8938 33.0926 50.143 33.3722 50.4119 33.6358C50.4457 33.6683 50.4799 33.7005 50.5141 33.7323H63.4095C63.4431 33.7005 63.4766 33.6683 63.5097 33.6358C63.7787 33.3722 64.0269 33.0926 64.2546 32.7969Z" fill="black"/>
<path d="M67.322 33.7323C67.3522 33.4589 67.3701 33.1471 67.3758 32.7969H72.706C72.7117 33.1471 72.7297 33.4589 72.7598 33.7323H67.322Z" fill="black"/>
<path d="M62.1922 34.6836H51.743C52.2252 34.9922 52.7421 35.2561 53.2936 35.4751C54.4073 35.9109 55.634 36.1288 56.9737 36.1288C58.2971 36.1288 59.5157 35.9109 60.6294 35.4751C61.1891 35.2561 61.71 34.9922 62.1922 34.6836Z" fill="black"/>
<path d="M45.7481 33.7323V32.7969H33.9342C34.2194 33.1349 34.5342 33.4467 34.8787 33.7323H45.7481Z" fill="black"/>
<path d="M36.3145 34.6836H45.7475V35.9109C45.3924 35.7979 45.0373 35.7415 44.6823 35.7415C44.4401 35.7415 44.0931 35.7737 43.6412 35.8383C43.2054 35.9028 42.697 35.9351 42.1159 35.9351C40.0338 35.9351 38.2423 35.5881 36.7412 34.894C36.5957 34.8268 36.4535 34.7567 36.3145 34.6836Z" fill="black"/>
<path d="M28.4655 33.7323C28.4992 33.7005 28.5326 33.6683 28.5658 33.6358C28.8347 33.3722 29.083 33.0926 29.3107 32.7969H14.7205C14.9499 33.0926 15.1991 33.3722 15.468 33.6358C15.5018 33.6683 15.5359 33.7005 15.5702 33.7323H28.4655Z" fill="black"/>
<path d="M16.7978 34.6836H27.2469C26.7648 34.9922 26.2438 35.2561 25.6842 35.4751C24.5705 35.9109 23.352 36.1288 22.0285 36.1288C20.6888 36.1288 19.4621 35.9109 18.3484 35.4751C17.7969 35.2561 17.28 34.9922 16.7978 34.6836Z" fill="black"/>
<path d="M6.14236 33.7323C6.10644 33.4594 6.0851 33.1475 6.07833 32.7969H0.747712C0.742016 33.1471 0.724088 33.4589 0.693909 33.7323H6.14236Z" fill="black"/>
<path d="M0.491708 34.6836H6.38821C6.51971 34.9922 6.68205 35.2238 6.8752 35.3783V35.5962H0.0720825V35.3783C0.245062 35.2177 0.384944 34.9861 0.491708 34.6836Z" fill="black"/>
<path d="M0.75 31.8447H6.07627V30.9092H0.75V31.8447Z" fill="black"/>
<path d="M0.75 29.957H6.07627V29.0215H0.75V29.957Z" fill="black"/>
<path d="M13.0717 29.0215C13.1265 29.3414 13.1969 29.6531 13.2827 29.957H19.6453C19.3619 29.7109 19.1233 29.4197 18.9299 29.0836C18.9187 29.063 18.9076 29.0423 18.8968 29.0215H13.0717Z" fill="black"/>
<path d="M25.1136 29.0215C25.1022 29.0423 25.0905 29.063 25.0787 29.0836C24.8954 29.4197 24.6638 29.7109 24.3841 29.957H30.7368C30.8258 29.6531 30.8988 29.3414 30.9557 29.0215H25.1136Z" fill="black"/>
<path d="M32.2218 29.0215C32.2774 29.3437 32.3483 29.6555 32.4341 29.957H38.9006C38.6069 29.7307 38.3633 29.4639 38.17 29.1563C38.1422 29.1121 38.1154 29.0671 38.0898 29.0215H32.2218Z" fill="black"/>
<path d="M37.7339 28.0697H32.1044C32.081 27.7701 32.0693 27.4626 32.0693 27.1471C32.0693 27.1428 32.0693 27.1385 32.0693 27.1343H37.6377C37.6384 27.466 37.6705 27.7779 37.7339 28.0697Z" fill="black"/>
<path d="M47.5175 28.0697H41.404C41.5752 27.8615 41.7077 27.5701 41.8014 27.1955C41.8066 27.1755 41.8116 27.1551 41.8166 27.1343H47.0882C47.0931 27.1551 47.0982 27.1755 47.1034 27.1955C47.1971 27.5701 47.3351 27.8615 47.5175 28.0697Z" fill="black"/>
<path d="M48.0162 29.0215C48.0711 29.3414 48.1414 29.6531 48.2272 29.957H54.5898C54.3064 29.7109 54.0679 29.4197 53.8744 29.0836C53.8632 29.063 53.8522 29.0423 53.8413 29.0215H48.0162Z" fill="black"/>
<path d="M53.5149 28.0697H47.9008C47.8808 27.7997 47.8707 27.5244 47.8707 27.2438C47.8707 27.2073 47.8709 27.1707 47.8713 27.1343H53.4405C53.4396 27.1706 53.4391 27.2071 53.4391 27.2438C53.4391 27.5331 53.4644 27.8084 53.5149 28.0697Z" fill="black"/>
<path d="M53.5715 26.1821C53.6433 25.9096 53.7446 25.6501 53.875 25.4037C53.9058 25.3501 53.9378 25.2978 53.9709 25.2466H48.0572C47.9975 25.5511 47.9521 25.8629 47.9211 26.1821H53.5715Z" fill="black"/>
<path d="M46.9593 26.1821C46.9425 25.9261 46.9341 25.6424 46.9341 25.331V25.2466H41.971V25.331C41.971 25.6424 41.9626 25.9261 41.9458 26.1821H46.9593Z" fill="black"/>
<path d="M37.7341 26.1821C37.8066 25.8477 37.9202 25.5359 38.075 25.2466H32.2492C32.1886 25.5502 32.1434 25.862 32.1134 26.1821H37.7341Z" fill="black"/>
<path d="M31.0551 26.1821C31.0229 25.8629 30.9759 25.5511 30.914 25.2466H24.9877C25.0193 25.2978 25.0496 25.3501 25.0788 25.4037C25.2165 25.6501 25.3233 25.9096 25.3992 26.1821H31.0551Z" fill="black"/>
<path d="M25.5381 27.1343C25.539 27.1706 25.5395 27.2071 25.5395 27.2438C25.5395 27.5331 25.5128 27.8084 25.4595 28.0697H31.0766C31.0975 27.7997 31.1079 27.5244 31.1079 27.2438C31.1079 27.2073 31.1077 27.1707 31.1073 27.1343H25.5381Z" fill="black"/>
<path d="M32.4984 24.2948H38.8837C39.0781 24.1375 39.2923 23.9988 39.5263 23.8786C40.1396 23.5881 40.8579 23.4428 41.6811 23.4428C41.7785 23.4428 41.8754 23.4438 41.9716 23.4458V24.2948H46.9347V23.3594H32.8733C32.7288 23.6607 32.6038 23.9726 32.4984 24.2948Z" fill="black"/>
<path d="M33.417 22.4072H46.9344V22.1593C46.9344 21.9079 46.9406 21.6787 46.953 21.4717H34.1488C33.883 21.7633 33.639 22.0751 33.417 22.4072Z" fill="black"/>
<path d="M45.7479 30.9092H32.7706C32.9098 31.2351 33.0697 31.5469 33.2504 31.8447H45.7479V30.9092Z" fill="black"/>
<path d="M29.9409 31.8447C30.1097 31.5461 30.2616 31.2344 30.3963 30.9092H13.6142C13.7537 31.2344 13.9096 31.5461 14.0817 31.8447H29.9409Z" fill="black"/>
<path d="M67.1198 34.6836H72.9626C73.0693 34.9861 73.2092 35.2177 73.3822 35.3783V35.5962H66.7001V35.3783C66.8731 35.2177 67.013 34.9861 67.1198 34.6836Z" fill="black"/>
<path d="M74.3158 34.6836C74.2033 34.9861 74.0482 35.2177 73.8505 35.3783V35.5962H81.622C83.0746 35.5962 84.3174 35.3621 85.3504 34.894C85.5033 34.8282 85.6511 34.758 85.7937 34.6836H74.3158Z" fill="black"/>
<path d="M91.077 34.6836C92.1961 35.4211 93.6964 35.7898 95.5796 35.7898C96.0159 35.7898 96.4106 35.7656 96.7664 35.7172C97.1214 35.6687 97.3879 35.6445 97.5649 35.6445C97.8395 35.6445 98.1384 35.7011 98.4609 35.8141V34.6836H91.077Z" fill="black"/>
<path d="M98.4606 33.7323H90.0088C89.7742 33.4449 89.5834 33.1331 89.4364 32.7969H98.4606V33.7323Z" fill="black"/>
<path d="M100.158 34.6836C100.052 34.9861 99.9116 35.2177 99.7382 35.3783V35.5962H106.397V35.3783C106.223 35.2177 106.083 34.9861 105.977 34.6836H100.158Z" fill="black"/>
<path d="M105.791 33.7323H100.361C100.391 33.4589 100.409 33.1471 100.415 32.7969H105.745C105.749 33.1471 105.765 33.4589 105.791 33.7323Z" fill="black"/>
<path d="M108.665 34.6836C108.565 34.9861 108.422 35.2177 108.237 35.3783V35.5962H114.919V35.3783C114.734 35.2177 114.586 34.9861 114.476 34.6836H108.665Z" fill="black"/>
<path d="M114.273 33.7323H108.859C108.889 33.4589 108.907 33.1471 108.913 32.7969H114.219C114.225 33.1471 114.243 33.4589 114.273 33.7323Z" fill="black"/>
<path d="M115.688 34.6836C115.563 34.9886 115.398 35.2201 115.191 35.3783V35.5962H121.026V35.4267C120.888 35.1825 120.812 34.9348 120.8 34.6836H115.688Z" fill="black"/>
<path d="M121.066 33.7323H115.915C115.949 33.4606 115.972 33.1488 115.982 32.7969H121.897L121.558 33.1274C121.352 33.3332 121.188 33.5349 121.066 33.7323Z" fill="black"/>
<path d="M128.633 34.6836C128.616 34.9345 128.541 35.1822 128.409 35.4267V35.5962H134.171V35.3783C133.977 35.2201 133.814 34.9886 133.683 34.6836H128.633Z" fill="black"/>
<path d="M133.446 33.7323H128.404C128.279 33.5146 128.103 33.2967 127.876 33.079L127.595 32.7969H133.379C133.39 33.1488 133.412 33.4606 133.446 33.7323Z" fill="black"/>
<path d="M133.373 31.8447V30.9092H125.719L126.649 31.8447H133.373Z" fill="black"/>
<path d="M122.873 31.8447L123.833 30.9092H115.989V31.8447H122.873Z" fill="black"/>
<path d="M114.216 31.8447V30.9092H108.914V31.8447H114.216Z" fill="black"/>
<path d="M105.743 31.8447V30.9092H100.417V31.8447H105.743Z" fill="black"/>
<path d="M98.4609 31.8447V30.9092H97.8341C97.7826 30.9458 97.7293 30.9798 97.6751 31.0113C97.6083 31.0507 97.5396 31.0861 97.4683 31.1176C97.3816 31.1549 97.2804 31.1874 97.1648 31.215C97.1522 31.2181 97.1386 31.2211 97.126 31.224C97.1034 31.2291 97.0799 31.234 97.0564 31.2387C96.911 31.2871 96.7502 31.3113 96.5723 31.3113C96.2011 31.3113 95.9111 31.2226 95.7007 31.045C95.6501 31.0017 95.6049 30.9564 95.5661 30.9092H89.0672C89.0677 31.236 89.0951 31.5479 89.1492 31.8447H98.4609Z" fill="black"/>
<path d="M88.313 31.8447C88.4153 31.549 88.4921 31.2371 88.5431 30.9092H82.39C82.067 31.0644 81.6578 31.1419 81.1625 31.1419H79.9277V30.9092H74.6014V31.8447H88.313Z" fill="black"/>
<path d="M74.5987 32.7969C74.5922 33.1471 74.5717 33.4589 74.5372 33.7323H87.1152C87.3616 33.4892 87.5803 33.2229 87.7713 32.9337C87.8017 32.8886 87.8313 32.8429 87.86 32.7969H74.5987Z" fill="black"/>
<path d="M74.6014 29.957H79.9277V29.0215H74.6014V29.957Z" fill="black"/>
<path d="M74.6014 28.0697H79.9277V27.1343H74.6014V28.0697Z" fill="black"/>
<path d="M74.6014 26.1821H87.4774C87.2336 25.8525 86.9491 25.5407 86.624 25.2466H74.6014V26.1821Z" fill="black"/>
<path d="M74.6014 24.2948H85.3183C84.7301 23.951 84.0557 23.6391 83.2948 23.3594H74.6014V24.2948Z" fill="black"/>
<path d="M74.6005 22.4072H80.1493L79.9267 22.3432V21.9414C79.9267 21.7772 79.9296 21.6205 79.9354 21.4717H74.5933C74.5981 21.621 74.6005 21.7776 74.6005 21.9414V22.4072Z" fill="black"/>
<path d="M89.4307 21.4717V22.4072H99.3428C99.2462 22.0765 99.117 21.7647 98.9535 21.4717H89.4307Z" fill="black"/>
<path d="M101.205 21.4717C101.046 21.7651 100.911 22.077 100.801 22.4072H113.832C113.721 22.077 113.586 21.7651 113.427 21.4717H101.205Z" fill="black"/>
<path d="M115.982 21.4717C115.987 21.621 115.989 21.7776 115.989 21.9414V22.4072H121.17V21.9414C121.17 21.7776 121.173 21.621 121.177 21.4717H115.982Z" fill="black"/>
<path d="M121.255 20.5205H115.905C115.882 20.3584 115.853 20.2109 115.82 20.078C115.773 19.8934 115.714 19.729 115.646 19.585H121.514C121.446 19.729 121.388 19.8934 121.34 20.078C121.307 20.2109 121.279 20.3584 121.255 20.5205Z" fill="black"/>
<path d="M128.208 21.4717C128.214 21.621 128.216 21.7776 128.216 21.9414V22.4072H133.373V21.9414C133.373 21.7776 133.375 21.621 133.38 21.4717H128.208Z" fill="black"/>
<path d="M133.457 20.5205H128.131C128.108 20.3584 128.08 20.2109 128.046 20.078C127.999 19.8934 127.939 19.729 127.868 19.585H133.72C133.649 19.729 133.59 19.8934 133.542 20.078C133.509 20.2109 133.48 20.3584 133.457 20.5205Z" fill="black"/>
<path d="M111.785 19.585H102.856C102.479 19.857 102.143 20.1688 101.849 20.5205H112.794C112.501 20.1688 112.165 19.857 111.785 19.585Z" fill="black"/>
<path d="M133.373 23.3594H128.215V24.2948H133.373V23.3594Z" fill="black"/>
<path d="M133.373 25.2466H128.215V26.1821H133.373V25.2466Z" fill="black"/>
<path d="M133.373 27.1343H128.216V27.2333L128.115 27.1343H115.989V28.0697H133.373V27.1343Z" fill="black"/>
<path d="M133.373 29.0215H115.989V29.957H133.373V29.0215Z" fill="black"/>
<path d="M114.216 29.957V29.0215H108.914V29.957H114.216Z" fill="black"/>
<path d="M105.743 29.957V29.0215H100.417V29.957H105.743Z" fill="black"/>
<path d="M95.4964 29.957C95.5262 29.8986 95.5623 29.8415 95.6038 29.7858C95.7655 29.6082 96.0238 29.3742 96.3788 29.0836L96.4628 29.0215H89.4475C89.3183 29.3258 89.2219 29.6377 89.1585 29.957H95.4964Z" fill="black"/>
<path d="M88.6182 29.957C88.6185 29.9323 88.6186 29.9075 88.6186 29.8826C88.6186 29.587 88.6025 29.2999 88.5703 29.0215H83.1864C83.2247 29.1778 83.2439 29.3438 83.2439 29.5194C83.2439 29.6765 83.2275 29.8224 83.1947 29.957H88.6182Z" fill="black"/>
<path d="M82.5898 28.0697H88.3883C88.2996 27.7443 88.1852 27.4324 88.0453 27.1343H80.4589L80.605 27.1713C81.5071 27.4087 82.1687 27.7083 82.5898 28.0697Z" fill="black"/>
<path d="M90.8455 27.1343C90.5158 27.426 90.2304 27.7378 89.9896 28.0697H97.6603C97.9421 27.8057 98.1932 27.5305 98.4127 27.2438C98.4407 27.2075 98.4678 27.171 98.4949 27.1343H90.8455Z" fill="black"/>
<path d="M100.417 27.1343V28.0697H105.743V27.1343H100.417Z" fill="black"/>
<path d="M105.743 26.1821H100.417V25.2466H105.751C105.746 25.3283 105.743 25.4129 105.743 25.5005V26.1821Z" fill="black"/>
<path d="M108.914 27.1343V28.0697H114.216V27.1343H108.914Z" fill="black"/>
<path d="M114.217 26.1821H108.915V25.5005C108.915 25.4129 108.912 25.3283 108.906 25.2466H114.217V26.1821Z" fill="black"/>
<path d="M115.989 26.1821H121.17V25.2466H115.989V26.1821Z" fill="black"/>
<path d="M115.989 24.2948H121.17V23.3594H115.989V24.2948Z" fill="black"/>
<path d="M114.076 23.3594H100.557C100.501 23.6588 100.463 23.9706 100.44 24.2948H105.998C106.037 24.2236 106.082 24.1575 106.13 24.0965C106.405 23.7737 106.8 23.6123 107.316 23.6123C107.833 23.6123 108.229 23.7737 108.503 24.0965C108.555 24.1575 108.602 24.2236 108.643 24.2948H114.193C114.17 23.9706 114.131 23.6588 114.076 23.3594Z" fill="black"/>
<path d="M99.5407 24.2948C99.547 24.1815 99.5506 24.0669 99.5506 23.9512C99.5506 23.7488 99.5416 23.5514 99.5226 23.3594H92.6987C92.8062 23.4081 92.9029 23.4683 92.9896 23.5397C93.2533 23.7448 93.3978 23.9966 93.4222 24.2948H99.5407Z" fill="black"/>
<path d="M93.1151 25.2466C93.106 25.2587 93.0961 25.2706 93.0862 25.2825C92.8965 25.5137 92.5623 25.8136 92.0863 26.1821H99.0601C99.1351 26.0225 99.2019 25.8597 99.2597 25.6941C99.3121 25.5473 99.3573 25.3981 99.3952 25.2466H93.1151Z" fill="black"/>
<path d="M90.8805 23.3594H89.4307V24.1933H89.6244L89.9876 23.8301C90.1166 23.7333 90.2538 23.6526 90.3991 23.5881C90.5454 23.5026 90.7062 23.4264 90.8805 23.3594Z" fill="black"/>
<path d="M123.121 25.2466L122.054 26.1821H127.146L126.194 25.2466H123.121Z" fill="black"/>
<path d="M125.226 24.2946H124.206L124.681 23.8784H124.802L125.226 24.2946Z" fill="black"/>
<path d="M0.741211 21.4717H12.7094V22.4072H0.749522V21.9414C0.749522 21.7776 0.746763 21.621 0.741211 21.4717Z" fill="black"/>
<path d="M137.501 0C137.2 0 136.923 0.0509266 136.673 0.15278C136.418 0.250716 136.197 0.391743 136.009 0.575862C135.821 0.756063 135.676 0.969559 135.574 1.21636C135.473 1.46316 135.421 1.73346 135.421 2.02726C135.421 2.32107 135.473 2.59137 135.574 2.83817C135.676 3.08497 135.821 3.30043 136.009 3.48455C136.197 3.66475 136.418 3.80578 136.673 3.90764C136.923 4.00556 137.2 4.05454 137.501 4.05454C137.799 4.05454 138.076 4.00556 138.33 3.90764C138.584 3.80578 138.806 3.66475 138.994 3.48455C139.182 3.30043 139.327 3.08497 139.429 2.83817C139.531 2.59137 139.581 2.32107 139.581 2.02726C139.581 1.73346 139.531 1.46316 139.429 1.21636C139.327 0.969559 139.182 0.756063 138.994 0.575862C138.806 0.391743 138.584 0.250716 138.33 0.15278C138.076 0.0509266 137.799 0 137.501 0ZM136.725 3.30239C136.502 3.18094 136.33 3.01054 136.209 2.79117C136.087 2.57179 136.026 2.31715 136.026 2.02726C136.026 1.73346 136.087 1.47882 136.209 1.26337C136.33 1.04399 136.502 0.873586 136.725 0.752146C136.945 0.630705 137.204 0.569985 137.501 0.569985C137.795 0.569985 138.054 0.630705 138.277 0.752146C138.497 0.873586 138.669 1.04399 138.794 1.26337C138.916 1.47882 138.976 1.73346 138.976 2.02726C138.976 2.31715 138.916 2.57179 138.794 2.79117C138.669 3.01054 138.497 3.18094 138.277 3.30239C138.054 3.42383 137.795 3.48455 137.501 3.48455C137.204 3.48455 136.945 3.42383 136.725 3.30239ZM136.884 1.68645H136.926C136.953 1.65512 136.992 1.62965 137.043 1.61006C137.079 1.59831 137.121 1.59243 137.172 1.59243C137.243 1.59243 137.308 1.61006 137.367 1.64532C137.421 1.68058 137.464 1.72758 137.496 1.78635C137.527 1.84511 137.543 1.91366 137.543 1.99201C137.543 2.11737 137.509 2.21923 137.443 2.29757C137.372 2.37592 137.28 2.41509 137.166 2.41509C137.107 2.41509 137.057 2.40334 137.014 2.37984C136.995 2.36809 136.976 2.35634 136.961 2.34458C136.941 2.32891 136.928 2.3152 136.92 2.30344H136.879V3.1026C136.914 3.11827 136.963 3.13002 137.025 3.13786C137.084 3.14569 137.147 3.14961 137.213 3.14961C137.456 3.14961 137.672 3.1026 137.86 3.00858C138.044 2.91065 138.189 2.7755 138.294 2.60313C138.401 2.42684 138.453 2.2251 138.453 1.99789C138.453 1.7746 138.404 1.57676 138.306 1.4044C138.208 1.23203 138.071 1.09884 137.895 1.00482C137.719 0.906884 137.519 0.857916 137.295 0.857916C137.241 0.857916 137.194 0.859875 137.154 0.863792C137.116 0.867709 137.08 0.869668 137.049 0.869668C136.99 0.869668 136.935 0.863792 136.884 0.85204V1.68645Z" fill="black"/>
<path fill-rule="evenodd" clip-rule="evenodd" d="M13.5792 14.1217C13.1434 13.0403 12.9255 11.8459 12.9255 10.5385C12.9255 9.23117 13.1434 8.03678 13.5792 6.95538C14.0311 5.87399 14.6606 4.93786 15.4676 4.14698C16.2908 3.35611 17.2511 2.74278 18.3486 2.30699C19.4623 1.87121 20.6889 1.65332 22.0286 1.65332C23.3521 1.65332 24.5707 1.87121 25.6844 2.30699C26.7981 2.74278 27.7584 3.35611 28.5654 4.14698C29.3724 4.93786 29.9938 5.87399 30.4296 6.95538C30.8815 8.03678 31.1075 9.23117 31.1075 10.5385C31.1075 11.8459 30.8815 13.0403 30.4296 14.1217C29.9938 15.203 29.3724 16.1391 28.5654 16.9301C27.7584 17.7209 26.7981 18.3342 25.6844 18.77C24.5707 19.2059 23.3521 19.4237 22.0286 19.4237C20.6889 19.4237 19.4623 19.2059 18.3486 18.77C17.2511 18.3342 16.2908 17.7209 15.4676 16.9301C14.6606 16.1391 14.0311 15.203 13.5792 14.1217ZM25.5391 10.5385C25.5391 9.84446 25.3858 9.23117 25.0791 8.69853C24.7886 8.1659 24.377 7.74626 23.8444 7.43959C23.3279 7.13293 22.7226 6.9796 22.0286 6.9796C21.3346 6.9796 20.7213 7.13293 20.1886 7.43959C19.656 7.74626 19.2364 8.1659 18.9296 8.69853C18.6392 9.23117 18.4939 9.84446 18.4939 10.5385C18.4939 11.2164 18.6392 11.8297 18.9296 12.3785C19.2364 12.9111 19.656 13.3307 20.1886 13.6375C20.7213 13.9441 21.3346 14.0975 22.0286 14.0975C22.7226 14.0975 23.3279 13.9441 23.8444 13.6375C24.377 13.3307 24.7886 12.9111 25.0791 12.3785C25.3858 11.8297 25.5391 11.2164 25.5391 10.5385Z" fill="black"/>
<path d="M9.63534 14.146H6.07643V5.23655C6.07643 4.41339 6.14906 3.78392 6.29432 3.34813C6.43959 2.91235 6.63327 2.59762 6.87537 2.40393V2.18604H0.0722648V2.40393C0.298228 2.61376 0.467701 2.94463 0.580682 3.39656C0.693663 3.83234 0.750155 4.44567 0.750155 5.23655V15.8407C0.750155 16.6316 0.685593 17.2529 0.556472 17.7049C0.44349 18.1407 0.257878 18.4635 -0.000366211 18.6733V18.8912H10.6038C10.9912 18.8912 11.3704 18.9073 11.7417 18.9396C12.1129 18.9719 12.4357 19.0284 12.7101 19.109V13.3954H12.5164C12.2905 13.6536 11.9515 13.8474 11.4995 13.9764C11.0638 14.0894 10.4424 14.146 9.63534 14.146Z" fill="black"/>
<path d="M41.8019 10.5876C41.9149 11.0234 41.9713 11.6448 41.9713 12.4518V14.3372C41.8751 14.3392 41.7783 14.3402 41.6808 14.3402C40.8576 14.3402 40.1394 14.195 39.5261 13.9044C38.9289 13.5977 38.4608 13.1701 38.1219 12.6213C37.7991 12.0564 37.6377 11.4026 37.6377 10.6602C37.6377 9.86932 37.8152 9.19145 38.1704 8.62656C38.5254 8.06164 39.0499 7.63393 39.744 7.34341C40.4542 7.03674 41.3176 6.88341 42.3345 6.88341C42.7541 6.88341 43.1254 6.90762 43.4482 6.95604C43.7871 7.00446 44.0938 7.07709 44.3682 7.17393C44.578 7.2385 44.7797 7.32727 44.9734 7.44025C45.1833 7.53709 45.3689 7.65814 45.5303 7.8034H45.7481V1.87187C45.3931 1.98485 45.0379 2.04134 44.6829 2.04134C44.4408 2.04134 44.0938 2.00906 43.6418 1.9445C43.206 1.87994 42.6977 1.84766 42.1166 1.84766C40.0345 1.84766 38.243 2.19468 36.7419 2.88871C35.2408 3.58274 34.0869 4.58343 33.2798 5.89078C32.4728 7.19814 32.0693 8.77989 32.0693 10.636C32.0693 12.363 32.4728 13.8721 33.2798 15.1633C34.0869 16.4546 35.2086 17.4552 36.6451 18.1655C38.0976 18.8756 39.7843 19.2307 41.705 19.2307C42.7541 19.2307 43.7872 19.1581 44.8039 19.0128C45.8208 18.8675 46.765 18.6415 47.6365 18.3349V18.117C47.3945 17.9233 47.2169 17.649 47.1039 17.2938C46.991 16.9388 46.9344 16.3819 46.9344 15.6233V12.4518C46.9344 11.6448 46.991 11.0234 47.1039 10.5876C47.2169 10.1357 47.3945 9.80483 47.6365 9.59501V9.37706H41.2934V9.59501C41.5194 9.80483 41.6889 10.1357 41.8019 10.5876Z" fill="black"/>
<path fill-rule="evenodd" clip-rule="evenodd" d="M48.5244 14.1217C48.0886 13.0403 47.8707 11.8459 47.8707 10.5385C47.8707 9.23117 48.0886 8.03678 48.5244 6.95538C48.9763 5.87399 49.6058 4.93786 50.4128 4.14698C51.236 3.35611 52.1963 2.74278 53.2938 2.30699C54.4075 1.87121 55.6341 1.65332 56.9738 1.65332C58.2973 1.65332 59.5159 1.87121 60.6296 2.30699C61.7432 2.74278 62.7036 3.35611 63.5106 4.14698C64.3176 4.93786 64.939 5.87399 65.3748 6.95538C65.8267 8.03678 66.0527 9.23117 66.0527 10.5385C66.0527 11.8459 65.8267 13.0403 65.3748 14.1217C64.939 15.203 64.3176 16.1391 63.5106 16.9301C62.7036 17.7209 61.7432 18.3342 60.6296 18.77C59.5159 19.2059 58.2973 19.4237 56.9738 19.4237C55.6341 19.4237 54.4075 19.2059 53.2938 18.77C52.1963 18.3342 51.236 17.7209 50.4128 16.9301C49.6058 16.1391 48.9763 15.203 48.5244 14.1217ZM60.4843 10.5385C60.4843 9.84446 60.331 9.23117 60.0243 8.69853C59.7338 8.1659 59.3222 7.74626 58.7896 7.43959C58.2731 7.13293 57.6678 6.9796 56.9738 6.9796C56.2798 6.9796 55.6665 7.13293 55.1338 7.43959C54.6012 7.74626 54.1816 8.1659 53.8748 8.69853C53.5844 9.23117 53.4391 9.84446 53.4391 10.5385C53.4391 11.2164 53.5844 11.8297 53.8748 12.3785C54.1816 12.9111 54.6012 13.3307 55.1338 13.6375C55.6665 13.9441 56.2798 14.0975 56.9738 14.0975C57.6678 14.0975 58.2731 13.9441 58.7896 13.6375C59.3222 13.3307 59.7338 12.9111 60.0243 12.3785C60.331 11.8297 60.4843 11.2164 60.4843 10.5385Z" fill="black"/>
<path d="M67.2086 3.39656C67.3216 3.83234 67.378 4.44567 67.378 5.23654V15.8407C67.378 16.6316 67.3216 17.2529 67.2086 17.7049C67.0956 18.1407 66.9261 18.4635 66.7001 18.6733V18.8912H73.3822V18.6733C73.1562 18.4635 72.9868 18.1407 72.8738 17.7049C72.7608 17.2529 72.7043 16.6316 72.7043 15.8407V5.23654C72.7043 4.44567 72.7608 3.83234 72.8738 3.39656C72.9868 2.94463 73.1562 2.61376 73.3822 2.40393V2.18604H66.7001V2.40393C66.9261 2.61376 67.0956 2.94463 67.2086 3.39656Z" fill="black"/>
<path fill-rule="evenodd" clip-rule="evenodd" d="M80.1451 17.7291C80.2905 18.1649 80.4841 18.4796 80.7262 18.6733V18.8912H73.9231V18.6733C74.1491 18.4635 74.3185 18.1407 74.4315 17.7049C74.5445 17.2529 74.601 16.6316 74.601 15.8407V5.23654C74.601 4.44567 74.5365 3.83234 74.4073 3.39656C74.2943 2.94463 74.1087 2.61376 73.8505 2.40393V2.18604H81.622C83.0747 2.18604 84.3174 2.42007 85.3504 2.88814C86.3995 3.34007 87.2066 3.99374 87.7714 4.84918C88.3363 5.68846 88.6187 6.7053 88.6187 7.89968C88.6187 9.04565 88.3767 10.0625 87.8925 10.9502C87.4082 11.8379 86.6658 12.6127 85.6651 13.2744C84.6644 13.92 83.3813 14.4607 81.8156 14.8965L79.9273 15.4389V15.8407C79.9273 16.6638 79.9999 17.2933 80.1451 17.7291ZM80.6051 10.6112L79.9273 10.7832V6.64074H81.162C81.8399 6.64074 82.3564 6.786 82.7115 7.07652C83.0665 7.35091 83.2441 7.74635 83.2441 8.26284C83.2441 8.84388 83.0343 9.32005 82.6146 9.69127C82.195 10.0625 81.5252 10.3691 80.6051 10.6112Z" fill="black"/>
<path d="M98.2681 7.1977H98.4614V1.96826C98.1389 2.08125 97.8399 2.13773 97.5654 2.13773C97.3883 2.13773 97.1219 2.11353 96.7669 2.06511C96.4119 2.01668 96.0163 1.99248 95.5801 1.99248C93.5144 1.99248 91.9085 2.43633 90.7623 3.32405C89.6327 4.19562 89.0678 5.38192 89.0678 6.88297C89.0678 7.6577 89.2453 8.39208 89.6004 9.08614C89.9555 9.76401 90.4723 10.3693 91.1497 10.9019L91.8037 11.3861C92.4332 11.8542 92.8605 12.2254 93.0863 12.4998C93.313 12.7742 93.4259 13.0727 93.4259 13.3955C93.4259 13.7345 93.2805 14.0169 92.9896 14.2429C92.715 14.4689 92.3366 14.5818 91.8516 14.5818C91.5779 14.5818 91.3114 14.5496 91.0531 14.485C90.811 14.4043 90.5934 14.3075 90.3992 14.1945C90.2541 14.1299 90.1169 14.0492 89.9877 13.9524L89.6246 13.5893H89.4309V18.6976C89.7537 18.8106 90.2299 18.8993 90.8589 18.9639C91.5047 19.0447 92.1343 19.0849 92.7475 19.0849C94.927 19.0849 96.6052 18.6169 97.7839 17.6808C98.9617 16.7285 99.5507 15.4454 99.5507 13.8313C99.5507 13.218 99.454 12.637 99.2607 12.0882C99.0665 11.5394 98.7838 11.0229 98.4126 10.5387C98.0414 10.0545 97.5816 9.60261 97.0334 9.18297L96.3794 8.69874C96.0245 8.40822 95.7661 8.17418 95.6045 7.99664C95.459 7.80296 95.3868 7.59314 95.3868 7.36718C95.3868 7.12507 95.4916 6.91525 95.7011 6.7377C95.9116 6.56016 96.2015 6.47139 96.5727 6.47139C96.7506 6.47139 96.9123 6.4956 97.0568 6.54402C97.2185 6.5763 97.3558 6.61665 97.4687 6.66507C97.6141 6.72963 97.7514 6.81034 97.8806 6.90717C98.026 6.98788 98.1552 7.08472 98.2681 7.1977Z" fill="black"/>
<path d="M100.416 5.23655C100.416 4.44567 100.36 3.83234 100.246 3.39656C100.133 2.94463 99.9646 2.61376 99.7388 2.40393V2.18604H106.396V2.40393C106.171 2.61376 106.001 2.94463 105.888 3.39656C105.791 3.83234 105.743 4.44567 105.743 5.23655V12.2817C105.743 12.8951 105.872 13.3632 106.13 13.686C106.405 14.0088 106.8 14.1702 107.316 14.1702C107.833 14.1702 108.228 14.0088 108.503 13.686C108.777 13.3632 108.914 12.8951 108.914 12.2817V5.23655C108.914 4.44567 108.858 3.83234 108.745 3.39656C108.648 2.94463 108.478 2.61376 108.236 2.40393V2.18604H114.918V2.40393C114.676 2.61376 114.498 2.94463 114.385 3.39656C114.273 3.83234 114.217 4.44567 114.217 5.23655V12.7901C114.217 14.1944 113.942 15.3887 113.393 16.3733C112.861 17.3579 112.078 18.1165 111.044 18.6491C110.027 19.1656 108.785 19.4238 107.316 19.4238C105.864 19.4238 104.621 19.1656 103.587 18.6491C102.571 18.1165 101.788 17.3579 101.239 16.3733C100.691 15.3887 100.416 14.1944 100.416 12.7901V5.23655Z" fill="black"/>
<path d="M115.796 3.42076C115.925 3.88883 115.99 4.5748 115.99 5.47865V15.8407C115.99 16.6316 115.934 17.2529 115.821 17.7049C115.708 18.1407 115.538 18.4635 115.312 18.6733V18.8912H121.849V18.6733C121.623 18.4635 121.453 18.1407 121.34 17.7049C121.227 17.2529 121.171 16.6316 121.171 15.8407V10.8252L124.681 13.9038H124.802L128.217 10.5493V15.8407C128.217 16.6316 128.16 17.2529 128.047 17.7049C127.934 18.1407 127.756 18.4635 127.514 18.6733V18.8912H134.075V18.6733C133.833 18.4635 133.656 18.1407 133.542 17.7049C133.429 17.2529 133.373 16.6316 133.373 15.8407V5.47865C133.373 4.5748 133.437 3.88883 133.566 3.42076C133.712 2.9527 133.913 2.61376 134.172 2.40393V2.18604H128.41V2.35551C128.619 2.74287 128.684 3.13832 128.603 3.54182C128.523 3.92918 128.281 4.31655 127.877 4.70391L124.791 7.80675L121.558 4.65549C121.155 4.25198 120.913 3.86463 120.832 3.4934C120.751 3.10603 120.816 2.72673 121.026 2.35551V2.18604H115.191V2.40393C115.466 2.61376 115.667 2.9527 115.796 3.42076Z" fill="black"/>
</g>
<defs>
<clipPath id="clip0_1_300">
<rect width="140" height="36.129" fill="white" transform="translate(-0.000366211)"/>
</clipPath>
</defs>
</svg>
