<svg width="140" height="32" viewBox="0 0 140 32" fill="none" xmlns="http://www.w3.org/2000/svg">
<g clip-path="url(#clip0_1_430)">
<path d="M40.3929 16.3189C40.4207 15.7828 40.4207 15.2457 40.3929 14.7097H9.85917C9.85274 14.8432 9.84711 14.9776 9.84389 15.112H3.44734L3.44412 15.3131H-0.000366211V15.7154H3.44331L3.44814 15.9166H9.84389C9.84711 16.0517 9.85193 16.1853 9.85998 16.3189H18.6261C18.5928 16.0519 18.5761 15.7832 18.5762 15.5143H31.4498C31.4498 15.787 31.4337 16.0557 31.3999 16.3189H40.3929ZM40.3293 13.9051H31.2478C31.1772 13.6313 31.0885 13.3625 30.9823 13.1005H19.0461C18.9407 13.3611 18.8514 13.6291 18.7806 13.9051H9.92193C9.93642 13.7707 9.95251 13.6363 9.97021 13.5028H3.57366L3.60101 13.3064H-0.000366211V12.9041H3.66458L3.70159 12.6982H10.0981C10.1223 12.5638 10.1496 12.4294 10.1786 12.2959H40.0742C40.1869 12.8229 40.273 13.3595 40.3293 13.9051ZM39.8787 11.4913H30.0385C29.8064 11.2016 29.5499 10.9324 29.2717 10.6867H20.7558C20.4783 10.9329 20.2208 11.2016 19.9891 11.4913H10.3741C10.4103 11.3569 10.4489 11.2225 10.4892 11.089H4.09262L4.16343 10.8629H-0.000366211V10.4598H4.29779L4.36055 10.2836H10.7571C10.8054 10.1484 10.8569 10.0148 10.91 9.88126H39.342C39.5496 10.4043 39.7291 10.9425 39.8787 11.4913ZM38.9961 9.07747H11.256C11.3187 8.9423 11.3831 8.80874 11.4499 8.67517H5.05412L5.16756 8.4531H-0.000366211V8.0508H5.38561L5.48779 7.87057H11.8843C11.9624 7.7354 12.0429 7.60103 12.1249 7.46828H38.1271C38.4473 7.98483 38.7386 8.5223 38.9961 9.07747ZM9.92193 17.1234H40.3301C40.273 17.669 40.1869 18.2064 40.0742 18.7326H30.5896C30.7385 18.4752 30.8704 18.2064 30.9831 17.928H19.0445C19.1571 18.2064 19.2883 18.4752 19.4371 18.7326H10.1778C10.1492 18.5989 10.1223 18.4648 10.0973 18.3303H3.70159C3.68848 18.2596 3.67588 18.1888 3.66377 18.1179H-0.000366211V17.7156H3.60021C3.59097 17.6524 3.58212 17.5891 3.57366 17.5257H9.97021C9.95235 17.3919 9.93626 17.2578 9.92193 17.1234ZM10.3733 19.5372H39.8779C39.7291 20.0868 39.5496 20.6234 39.342 21.1464H28.1324C28.5401 20.9201 28.9221 20.6504 29.2717 20.3418H20.7558C21.1055 20.6504 21.4875 20.9201 21.8952 21.1464H10.91C10.8572 21.0131 10.8062 20.8789 10.7571 20.7441H4.36055L4.29136 20.5502H-0.000366211V20.1479H4.15779C4.13585 20.0786 4.11439 20.0092 4.09343 19.9395H10.4892C10.4489 19.806 10.4103 19.6724 10.3733 19.5372ZM11.256 21.951H38.9961C38.7388 22.5043 38.4487 23.0417 38.1271 23.5602H12.1249C12.0424 23.4274 11.9619 23.2933 11.8835 23.1579H5.48779C5.44757 23.0887 5.40814 23.0195 5.36952 22.9495H-0.000366211V22.5472H5.15308L5.05412 22.3541H11.4507C11.3838 22.221 11.3189 22.0869 11.256 21.9518V21.951ZM13.6134 25.5717C13.7317 25.7085 13.8532 25.8421 13.9771 25.974H36.2749C36.7498 25.468 37.1899 24.9304 37.592 24.3648H12.66C12.7565 24.5008 12.8547 24.6352 12.9561 24.7671H6.55952L6.71883 24.9723H-0.000366211V25.3746H7.04791C7.10343 25.4414 7.15975 25.5066 7.21688 25.5717H13.6134ZM16.2823 27.9855C16.4778 28.1247 16.6765 28.2591 16.8777 28.3878H33.3743C34.1149 27.9122 34.8132 27.3739 35.4615 26.7786H14.7914C14.9402 26.9154 15.0923 27.0498 15.2468 27.1809H8.85021C8.93711 27.2549 9.02481 27.3274 9.11331 27.3982H-0.000366211V27.8005H9.63228C9.71596 27.8632 9.80124 27.9252 9.88653 27.9855H16.2831H16.2823ZM21.9281 30.4669C22.9596 30.6866 24.0289 30.8016 25.1256 30.8016C27.5829 30.8016 29.9041 30.2223 31.9607 29.1924H18.2906C18.577 29.3356 18.8675 29.47 19.1627 29.5947H12.7662C12.8804 29.643 12.9955 29.6905 13.1106 29.7363H-0.000366211V30.1386H14.2611C15.6748 30.5699 17.1754 30.8016 18.7299 30.8016C19.8265 30.8016 20.8966 30.6866 21.9281 30.4669ZM12.66 6.66368H37.592C37.1899 6.09814 36.7498 5.56051 36.2749 5.05448H13.9771C13.8532 5.18644 13.7317 5.32 13.6126 5.45678H7.21688L7.07527 5.62253H-0.000366211V6.02483H6.74377C6.68182 6.10287 6.62067 6.18172 6.56032 6.26138H12.9561C12.8547 6.39414 12.7565 6.52851 12.66 6.66368ZM14.7906 4.24989H35.4607C34.8126 3.65468 34.1146 3.1163 33.3743 2.64069H16.8777C16.6765 2.77023 16.4778 2.9046 16.2823 3.04299H9.88653C9.79803 3.10655 9.70952 3.17011 9.62262 3.23529H-0.000366211V3.63759H9.10446C9.01917 3.70678 8.93469 3.77678 8.85101 3.84759H15.2468C15.0923 3.97874 14.9402 4.1131 14.7906 4.24989ZM18.2914 1.83609H31.9615C29.8397 0.774373 27.499 0.223316 25.1264 0.226897C24.0289 0.226897 22.9596 0.342759 21.9281 0.562414C20.8767 0.338897 19.8048 0.226441 18.7299 0.226897C17.0129 0.226897 15.3626 0.510115 13.8218 1.03149H-0.000366211V1.43379H19.1627C18.8681 1.55869 18.5775 1.69285 18.2914 1.83609ZM89.5095 0C90.0381 0 90.4533 0.131954 90.755 0.395862C91.0696 0.647701 91.2265 0.99931 91.2265 1.4531C91.2265 1.90609 91.0696 2.26414 90.755 2.52805C90.4533 2.77989 90.0381 2.90621 89.5095 2.90621C88.9817 2.90621 88.5601 2.77989 88.2455 2.52805C87.9438 2.26414 87.7925 1.90609 87.7925 1.4531C87.7925 1.00011 87.9438 0.648506 88.2455 0.395862C88.5601 0.131954 88.9817 0 89.5095 0ZM90.9811 4.66023V12.8679C90.9811 13.3966 91.0696 13.7554 91.2458 13.9437C91.4341 14.1328 91.7487 14.2269 92.1888 14.2269V14.6228C91.8369 14.6056 91.4847 14.5929 91.1324 14.5849C90.6484 14.5596 90.1639 14.547 89.6793 14.5471C89.1893 14.5471 88.6921 14.56 88.1892 14.5849C87.8117 14.5933 87.4343 14.6059 87.0571 14.6228V14.2269C87.4972 14.2269 87.8054 14.1328 87.9816 13.9437C88.1699 13.7554 88.2648 13.3966 88.2648 12.8679V6.92437C88.2648 6.35874 88.1763 5.94276 88.0001 5.67966C87.8368 5.40287 87.5222 5.26448 87.0571 5.26448V4.86782C87.4594 4.90563 87.8496 4.92414 88.227 4.92414C88.7548 4.92414 89.2456 4.90563 89.6986 4.86782C90.1637 4.81793 90.5917 4.74874 90.9811 4.66023Z" fill="black"/>
<path fill-rule="evenodd" clip-rule="evenodd" d="M96.2913 6.39162V4.66012C95.9019 4.74863 95.4738 4.81782 95.0088 4.86771C94.5429 4.90552 94.0521 4.92403 93.5363 4.92403C93.159 4.92403 92.7696 4.90552 92.3665 4.86771V5.26438C92.8194 5.26438 93.134 5.40277 93.3102 5.67955C93.4865 5.94346 93.5742 6.35863 93.5742 6.92426V16.359C93.5742 16.8618 93.4865 17.2014 93.3102 17.3776C93.1469 17.5538 92.8573 17.6415 92.4421 17.6415V18.0382L93.4422 17.9818C93.9012 17.9691 94.3604 17.9626 94.8197 17.9625C95.4609 17.9625 96.0652 17.969 96.6308 17.981C97.2093 18.0068 97.6623 18.0253 97.9898 18.0374V17.6415C97.4612 17.6415 97.046 17.5409 96.7443 17.3398C96.4425 17.1515 96.2913 16.7613 96.2913 16.1699V14.2791C96.457 14.4175 96.6517 14.5317 96.8762 14.6227C97.2785 14.7997 97.7251 14.8874 98.2159 14.8874C98.8829 14.8874 99.4799 14.7675 100.009 14.5285C100.546 14.2922 101.018 13.9298 101.386 13.4721C101.775 12.9941 102.072 12.4092 102.273 11.7172C102.487 11.0253 102.594 10.2207 102.594 9.30185C102.594 8.25828 102.442 7.39012 102.141 6.69817C101.839 5.99334 101.436 5.47196 100.933 5.13242C100.43 4.78019 99.8297 4.59523 99.216 4.6038C98.4862 4.6038 97.845 4.79208 97.2914 5.16943C96.8561 5.46311 96.523 5.87024 96.2913 6.39242V6.39162ZM96.2913 7.04012V13.88C96.3959 14.0039 96.5222 14.1069 96.6686 14.189C96.9076 14.3145 97.1779 14.3772 97.4805 14.3772C98.0461 14.3772 98.4927 14.189 98.8201 13.8116C99.1468 13.4214 99.3793 12.8807 99.5177 12.1887C99.669 11.4847 99.7446 10.6479 99.7446 9.6792C99.7446 8.59782 99.6754 7.74817 99.537 7.13185C99.3986 6.51552 99.2096 6.07541 98.9706 5.8115C98.7316 5.54679 98.4428 5.41483 98.1024 5.41483C97.6502 5.41483 97.2351 5.59185 96.8577 5.94346C96.5737 6.21702 96.3846 6.58311 96.2913 7.04012Z" fill="black"/>
<path d="M106.926 4.6037C107.454 4.6037 107.913 4.67289 108.303 4.81128C108.705 4.9368 108.995 5.06312 109.171 5.18864C109.598 5.4783 109.863 5.28921 109.964 4.6222H110.36C110.335 4.97462 110.315 5.4091 110.303 5.92404C110.29 6.42772 110.284 7.10036 110.284 7.94358H109.888C109.824 7.47181 109.703 7.0094 109.529 6.56611C109.369 6.1359 109.103 5.75293 108.756 5.45255C108.429 5.16289 108.001 5.01807 107.473 5.01807C107.108 5.01807 106.8 5.12588 106.548 5.3399C106.296 5.54105 106.171 5.83634 106.171 6.22657C106.171 6.60393 106.284 6.93703 106.51 7.22669C106.737 7.50347 107.026 7.77381 107.379 8.03772C107.743 8.28956 108.12 8.5599 108.511 8.84876C108.926 9.16335 109.303 9.47795 109.643 9.79255C109.968 10.0771 110.243 10.4154 110.454 10.7927C110.656 11.1571 110.756 11.5908 110.756 12.0945C110.756 12.6601 110.592 13.1566 110.265 13.5846C109.938 13.9998 109.504 14.3208 108.964 14.5469C108.435 14.7738 107.844 14.8873 107.19 14.8873C106.847 14.8912 106.505 14.8531 106.171 14.7738C105.909 14.7086 105.656 14.6136 105.416 14.4906C105.253 14.415 105.095 14.3458 104.945 14.283C104.816 14.2124 104.684 14.1495 104.548 14.0947C104.422 14.0569 104.309 14.1004 104.208 14.2267C104.121 14.3522 104.052 14.5284 104.001 14.7545H103.605C103.63 14.3522 103.649 13.8614 103.661 13.2829C103.674 12.7044 103.681 11.9368 103.681 10.9817H104.076C104.152 11.6608 104.291 12.2643 104.492 12.7921C104.693 13.3086 104.963 13.7174 105.303 14.0191C105.655 14.3088 106.095 14.4536 106.624 14.4536C106.838 14.4536 107.045 14.4093 107.247 14.3208C107.448 14.2323 107.611 14.0875 107.737 13.8863C107.876 13.6852 107.945 13.4277 107.945 13.1139C107.945 12.5596 107.762 12.1001 107.397 11.7357C107.045 11.3712 106.592 10.9745 106.039 10.5473C105.637 10.2198 105.253 9.89956 104.888 9.58496C104.55 9.27572 104.258 8.92002 104.02 8.52853C103.79 8.12663 103.673 7.67026 103.681 7.20738C103.681 6.64174 103.831 6.16381 104.133 5.77358C104.441 5.37928 104.853 5.07865 105.322 4.90542C105.832 4.70288 106.377 4.60044 106.926 4.6037ZM130.348 4.81128C130.021 4.67289 129.593 4.6037 129.065 4.6037C128.473 4.59769 127.889 4.74045 127.367 5.01887C126.851 5.28278 126.443 5.72933 126.14 6.35853V4.66082C125.751 4.74853 125.323 4.81772 124.858 4.86761C124.405 4.90542 123.914 4.92393 123.386 4.92393C123.009 4.92393 122.618 4.90542 122.216 4.86761V5.26427C122.681 5.26427 122.996 5.40266 123.159 5.67944C123.335 5.94335 123.423 6.35853 123.423 6.92416V12.8677C123.423 13.3963 123.329 13.7552 123.141 13.9435C122.964 14.1325 122.656 14.2267 122.216 14.2267V14.6225C122.593 14.6057 122.971 14.5931 123.348 14.5847C123.838 14.5599 124.329 14.5473 124.82 14.5469C125.26 14.5469 125.688 14.5598 126.102 14.5847C126.53 14.5976 126.845 14.6105 127.046 14.6225V14.2267C126.719 14.2267 126.486 14.1325 126.348 13.9435C126.209 13.7552 126.14 13.3963 126.14 12.8677V7.62255C126.14 7.20738 126.222 6.83646 126.386 6.50899C126.562 6.16944 126.788 5.90554 127.065 5.71726C127.33 5.53205 127.647 5.43317 127.971 5.43404C128.26 5.43404 128.473 5.50324 128.612 5.64163C128.763 5.76715 128.864 5.94979 128.914 6.18876C128.964 6.41485 128.989 6.68519 128.989 6.99979V12.8677C128.989 13.3963 128.92 13.7552 128.782 13.9435C128.656 14.1325 128.424 14.2267 128.084 14.2267V14.6225C128.31 14.6105 128.643 14.5976 129.084 14.5847C129.977 14.5338 130.871 14.5338 131.763 14.5847C132.229 14.5976 132.575 14.6105 132.801 14.6225V14.2267C132.398 14.2267 132.115 14.1325 131.952 13.9435C131.788 13.7552 131.706 13.3963 131.706 12.8677V7.70623L131.706 7.64749L131.702 7.4568C131.731 7.14141 131.816 6.8336 131.952 6.54761C132.128 6.20726 132.354 5.93692 132.631 5.73577C132.908 5.53462 133.21 5.43404 133.537 5.43404C133.863 5.43404 134.103 5.50324 134.254 5.64163C134.417 5.76715 134.524 5.94979 134.575 6.18876C134.638 6.41485 134.669 6.68519 134.669 6.99979V12.8677C134.669 13.3963 134.6 13.7552 134.461 13.9435C134.336 14.1325 134.103 14.2267 133.763 14.2267V14.6225C133.99 14.6105 134.323 14.5976 134.763 14.5847C135.209 14.5594 135.656 14.5468 136.103 14.5469C136.569 14.5469 137.04 14.5598 137.518 14.5847C137.996 14.5976 138.355 14.6105 138.594 14.6225V14.2267C138.154 14.2267 137.839 14.1325 137.65 13.9435C137.474 13.7552 137.386 13.3963 137.386 12.8677V7.79232C137.386 7.16312 137.342 6.66025 137.254 6.28289C137.166 5.89266 137.022 5.57887 136.82 5.3399C136.618 5.11301 136.355 4.93761 136.027 4.81128C135.7 4.67289 135.272 4.6037 134.745 4.6037C134.103 4.6037 133.499 4.73565 132.933 4.99956C132.391 5.25864 131.952 5.75266 131.615 6.48163C131.603 6.41502 131.59 6.34875 131.574 6.28289C131.487 5.89266 131.342 5.57887 131.141 5.3399C130.94 5.11301 130.675 4.93761 130.348 4.81128ZM120.736 12.566V4.66002C120.345 4.74853 119.918 4.81772 119.452 4.86761C119 4.90542 118.509 4.92393 117.981 4.92393C117.603 4.92393 117.214 4.90542 116.811 4.86761V5.26427C117.277 5.26427 117.591 5.40266 117.755 5.67944C117.931 5.94335 118.019 6.35853 118.019 6.92416V11.8676C118.019 12.2828 117.931 12.6601 117.755 12.9997C117.605 13.3106 117.378 13.5773 117.094 13.7737C116.83 13.9626 116.513 14.0618 116.188 14.0569C115.874 14.0569 115.635 13.9934 115.471 13.8678C115.302 13.7195 115.183 13.5216 115.132 13.3022C115.078 13.0287 115.053 12.7505 115.056 12.4719V4.66002C114.667 4.74853 114.239 4.81772 113.773 4.86761C113.32 4.90542 112.83 4.92393 112.302 4.92393C111.925 4.92393 111.534 4.90542 111.132 4.86761V5.26427C111.597 5.26427 111.912 5.40266 112.075 5.67944C112.251 5.94335 112.339 6.35853 112.339 6.92416V11.6978C112.339 12.3142 112.383 12.8178 112.472 13.2073C112.559 13.5975 112.711 13.9121 112.924 14.1511C113.113 14.3651 113.37 14.5413 113.698 14.6797C114.025 14.8173 114.453 14.8873 114.981 14.8873C115.635 14.8873 116.226 14.7545 116.755 14.4906C117.295 14.2138 117.717 13.7608 118.019 13.1324V14.8301C118.44 14.7264 118.869 14.657 119.302 14.6225C119.755 14.5847 120.245 14.5662 120.773 14.5662C121.164 14.5662 121.553 14.5847 121.943 14.6225V14.2267C121.49 14.2267 121.176 14.0947 121 13.83C120.823 13.5532 120.736 13.1324 120.736 12.5668V12.566Z" fill="black"/>
<path fill-rule="evenodd" clip-rule="evenodd" d="M84.2377 5.11316C83.5458 4.77362 82.7404 4.60385 81.8223 4.60385C80.9292 4.60385 80.1303 4.77362 79.4263 5.11316C78.7343 5.4527 78.1872 5.99983 77.7849 6.75454C77.3946 7.50925 77.1991 8.50937 77.1991 9.75488C77.1991 11.0004 77.3946 11.9997 77.7841 12.7552C78.1864 13.4971 78.7335 14.0378 79.4254 14.3773C80.1303 14.7168 80.9292 14.8874 81.8223 14.8874C82.7404 14.8874 83.5458 14.7168 84.2377 14.3773C84.9289 14.0378 85.4704 13.4971 85.8598 12.7552C86.25 12.0005 86.4448 11.0004 86.4448 9.75488C86.4448 8.50937 86.25 7.51006 85.8598 6.75454C85.4704 5.99983 84.9289 5.4527 84.2377 5.11316ZM80.5583 6.11327C80.8979 5.35856 81.3195 4.98121 81.8223 4.98121C82.3381 4.98121 82.7597 5.35856 83.0864 6.11327C83.4259 6.85511 83.5957 8.06925 83.5957 9.75488C83.5957 11.4405 83.4259 12.6547 83.0864 13.3965C82.7597 14.1383 82.3381 14.5101 81.8223 14.5101C81.3195 14.5101 80.8979 14.1383 80.5583 13.3965C80.2188 12.6547 80.049 11.4405 80.049 9.75488C80.049 8.06925 80.218 6.85511 80.5583 6.11327ZM71.0464 18.1702C70.2659 18.1702 69.5683 18.101 68.952 17.9626C68.3485 17.8371 67.8706 17.6359 67.5182 17.3591C67.1787 17.0944 67.0089 16.7678 67.0089 16.3775C67.0089 15.9873 67.1843 15.6357 67.5367 15.3211C67.8891 15.0194 68.4113 14.7804 69.1033 14.6042L69.2722 14.9059C69.0562 15.0681 68.8764 15.2737 68.7444 15.5094C68.6438 15.7363 68.5931 15.9688 68.5931 16.2078C68.5931 16.7364 68.8321 17.1387 69.3108 17.4147C69.8017 17.7043 70.4614 17.8491 71.2918 17.8491C71.8574 17.8491 72.3611 17.7735 72.8012 17.623C73.2542 17.4718 73.6058 17.2449 73.8576 16.944C74.1223 16.6414 74.2543 16.2705 74.2543 15.8304C74.2543 15.453 74.1159 15.132 73.8391 14.8681C73.5623 14.6163 73.0088 14.4907 72.1784 14.4907H71.0085C70.4936 14.4907 70.0398 14.4344 69.6504 14.321C69.2722 14.2083 68.9769 14.0313 68.7629 13.7924C68.5497 13.5413 68.4427 13.2267 68.4427 12.8494C68.4427 12.3207 68.6503 11.8557 69.0654 11.4526C69.3905 11.1372 69.8395 10.8371 70.4123 10.553C70.0357 10.5062 69.6658 10.4158 69.31 10.2835C68.7444 10.0695 68.2979 9.74201 67.9712 9.3019C67.6437 8.86178 67.4804 8.29615 67.4804 7.60419C67.4804 6.91224 67.6437 6.3458 67.9712 5.90569C68.2979 5.4527 68.7444 5.12523 69.3108 4.92408C69.8765 4.71086 70.5177 4.60385 71.2346 4.60385C71.9523 4.60385 72.5936 4.71086 73.1592 4.92488C73.5326 5.05684 73.8528 5.24431 74.1223 5.48569C74.2825 5.25477 74.4772 5.04879 74.7065 4.86776C75.1345 4.54109 75.5939 4.37695 76.0839 4.37695C76.4862 4.37695 76.7888 4.4904 76.9899 4.7173C77.204 4.93052 77.311 5.21373 77.311 5.56615C77.311 5.9435 77.2096 6.22592 77.0084 6.415C76.8073 6.59201 76.5812 6.67971 76.3294 6.67971C76.1079 6.67678 75.8944 6.59652 75.7259 6.45282C75.5489 6.30155 75.4491 6.07546 75.4242 5.77373C75.4025 5.50339 75.4781 5.16868 75.6511 4.76799C75.2842 4.92408 75.001 5.1019 74.8014 5.30224C74.651 5.44728 74.5196 5.61085 74.4104 5.78902C74.441 5.82684 74.4707 5.86626 74.4989 5.90569C74.8264 6.3458 74.9897 6.91144 74.9897 7.60339C74.9897 8.29534 74.8264 8.86178 74.4989 9.3019C74.1722 9.74201 73.7257 10.0695 73.1592 10.2835C72.5936 10.4967 71.9523 10.6037 71.2346 10.6037C71.1273 10.6038 71.02 10.6014 70.9128 10.5965C70.743 10.7116 70.5797 10.8338 70.4236 10.9626C70.3267 11.0384 70.2489 11.136 70.1965 11.2473C70.1441 11.3587 70.1185 11.4808 70.1219 11.6038C70.1219 12.0061 70.3737 12.2073 70.8766 12.2073H72.9332C73.6251 12.2073 74.2414 12.2894 74.7821 12.4527C75.3357 12.6168 75.7694 12.8872 76.0839 13.2645C76.4114 13.629 76.5748 14.107 76.5748 14.6983C76.5748 15.3147 76.3736 15.8867 75.9713 16.4153C75.5811 16.944 74.9776 17.3648 74.1594 17.6794C73.3419 18.0068 72.304 18.1702 71.0464 18.1702ZM71.2346 10.2642C71.575 10.2642 71.8381 10.0759 72.0272 9.69856C72.2162 9.30833 72.3104 8.60994 72.3104 7.60419C72.3104 6.59764 72.2162 5.90569 72.0272 5.52833C71.8389 5.1381 71.575 4.94339 71.2354 4.94339C70.908 4.94339 70.6441 5.1381 70.4429 5.52833C70.2538 5.90569 70.1597 6.59764 70.1597 7.60419C70.1597 8.60994 70.2538 9.30833 70.4429 9.69856C70.6441 10.0759 70.908 10.2642 71.2346 10.2642ZM64.5661 5.11316C63.8742 4.77362 63.0696 4.60385 62.1515 4.60385C61.2584 4.60385 60.4595 4.77362 59.7554 5.11316C59.0635 5.4527 58.5164 5.99983 58.1141 6.75454C57.7238 7.50925 57.5283 8.50937 57.5283 9.75488C57.5283 11.0004 57.7238 11.9997 58.1133 12.7552C58.5156 13.4971 59.0627 14.0378 59.7546 14.3773C60.4595 14.7168 61.2584 14.8874 62.1515 14.8874C63.0696 14.8874 63.875 14.7168 64.5661 14.3773C65.2581 14.0378 65.7988 13.4971 66.189 12.7552C66.5792 12.0005 66.7739 11.0004 66.7739 9.75488C66.7739 8.50937 66.5792 7.51006 66.189 6.75454C65.7996 5.99983 65.2581 5.4527 64.5661 5.11316ZM60.8867 6.11327C61.2271 5.35856 61.6479 4.98121 62.1515 4.98121C62.6665 4.98121 63.0881 5.35856 63.4148 6.11327C63.7551 6.85511 63.9249 8.06925 63.9249 9.75488C63.9249 11.4405 63.7551 12.6547 63.4156 13.3965C63.0881 14.1383 62.6673 14.5101 62.1515 14.5101C61.6479 14.5101 61.2263 14.1383 60.8867 13.3965C60.5472 12.6547 60.3774 11.4405 60.3774 9.75488C60.3774 8.06925 60.5472 6.85511 60.8867 6.11327Z" fill="black"/>
<path d="M52.4464 1.26367V1.64183C52.0192 1.6539 51.6917 1.70379 51.4656 1.79229C51.3621 1.82733 51.2686 1.88679 51.193 1.96565C51.1173 2.0445 51.0618 2.14042 51.0311 2.24528C50.9563 2.4585 50.9185 2.79884 50.9185 3.2639V12.8491C50.9185 13.2385 50.9434 13.5282 50.9941 13.7172C51.0569 13.9055 51.1703 14.031 51.3337 14.0946C51.5099 14.1573 51.7681 14.1887 52.1069 14.1887H53.0322C53.4586 14.1887 53.8617 14.0882 54.2391 13.887C54.6172 13.6859 54.956 13.4026 55.2577 13.0373C55.5759 12.6316 55.8307 12.1799 56.0132 11.6977C56.2143 11.1828 56.3648 10.6099 56.4654 9.98068H56.8999C56.8621 10.4087 56.8435 10.9623 56.8435 11.6414C56.8435 11.931 56.8492 12.3518 56.8621 12.9054C56.8749 13.459 56.9119 14.0318 56.9747 14.6224C56.2519 14.5958 55.5287 14.5832 54.8055 14.5846C54.0009 14.5725 53.2832 14.5661 52.654 14.5661H51.4471C50.9563 14.5661 50.4277 14.5725 49.8621 14.5846C49.2956 14.5846 48.7235 14.591 48.145 14.6039C47.5657 14.6039 47.0186 14.6103 46.5037 14.6224V14.2451C46.906 14.2201 47.2077 14.1694 47.4088 14.0946C47.61 14.019 47.7419 13.8677 47.8055 13.6416C47.8803 13.4147 47.9181 13.0752 47.9181 12.6222V3.2639C47.9181 2.79804 47.8803 2.4593 47.8055 2.24528C47.7807 2.14061 47.7296 2.04403 47.6569 1.96474C47.5842 1.88544 47.4924 1.82608 47.3903 1.79229C47.1892 1.70379 46.8931 1.6539 46.5037 1.64103V1.26367C47.4969 1.30047 48.4908 1.31925 49.4847 1.31999C50.0383 1.31999 50.5789 1.31436 51.1068 1.30149C51.6483 1.28861 52.0948 1.27655 52.4464 1.26367Z" fill="black"/>
<path fill-rule="evenodd" clip-rule="evenodd" d="M136.678 30.2149C136.651 30.0797 136.669 29.9035 136.733 29.6862L139.39 20.0576C138.965 20.2321 138.524 20.3681 138.075 20.4639C137.614 20.5549 137.085 20.6039 136.488 20.6136L136.393 20.8984C136.836 20.8984 137.112 20.9708 137.221 21.1157C137.329 21.2605 137.342 21.4858 137.261 21.7931L136.632 24.1659C136.592 24.0514 136.524 23.949 136.434 23.8682C136.28 23.7234 136.068 23.651 135.797 23.651C135.254 23.651 134.752 23.7732 134.291 24.017C133.828 24.2704 133.41 24.6007 133.057 24.9938C132.686 25.3922 132.371 25.8394 132.121 26.323C131.875 26.7936 131.68 27.2891 131.538 27.8011C131.41 28.242 131.341 28.6983 131.334 29.1576C131.334 29.5913 131.403 29.9485 131.538 30.2285C131.674 30.4997 131.859 30.7032 132.094 30.8384C132.329 30.9655 132.591 31.0283 132.881 31.0283C133.323 31.0283 133.722 30.898 134.074 30.6357C134.427 30.3645 134.756 29.9485 135.065 29.3877C135.193 29.1592 135.323 28.9026 135.452 28.6177L135.362 28.9541C135.281 29.219 135.226 29.4915 135.2 29.7675C135.182 30.0024 135.2 30.202 135.254 30.3645C135.362 30.807 135.697 31.0291 136.258 31.0291C136.465 31.0291 136.678 30.9881 136.895 30.9068C137.112 30.8255 137.315 30.6855 137.505 30.486C137.704 30.2873 137.862 30.0032 137.98 29.6315L138.306 28.6419H138.048L137.831 29.2518C137.668 29.7136 137.515 30.025 137.37 30.1875C137.234 30.342 137.094 30.4184 136.949 30.4184C136.795 30.4184 136.705 30.3508 136.678 30.2149ZM135.954 26.7229C135.852 27.0536 135.741 27.3682 135.621 27.6651C135.394 28.2444 135.155 28.7416 134.901 29.1576C134.657 29.5639 134.418 29.8801 134.183 30.107C133.948 30.3235 133.739 30.4321 133.559 30.4321C133.387 30.4321 133.261 30.3508 133.179 30.1883C133.107 30.0161 133.071 29.7586 133.071 29.4151C133.071 28.9267 133.125 28.4295 133.233 27.9234C133.342 27.4084 133.491 26.9152 133.681 26.4453C133.856 26.0043 134.074 25.5817 134.332 25.1837C134.576 24.8039 134.834 24.5054 135.105 24.2882C135.385 24.071 135.661 23.9631 135.932 23.9631C136.113 23.9631 136.258 24.0267 136.366 24.153C136.442 24.2351 136.5 24.3542 136.54 24.5119L135.954 26.7229Z" fill="black"/>
<path d="M127.653 30.8384H125.985L127.612 24.9938C127.694 24.7226 127.721 24.5327 127.694 24.4241C127.667 24.3155 127.586 24.2616 127.45 24.2616C127.278 24.2616 127.12 24.3477 126.975 24.5191C126.83 24.6904 126.681 24.9938 126.528 25.4283L126.297 26.0647H126.039L126.392 25.0477C126.519 24.6856 126.676 24.4064 126.866 24.2069C127.056 23.9993 127.265 23.8545 127.491 23.7732C127.717 23.6919 127.947 23.6509 128.182 23.6509C128.471 23.6509 128.684 23.7096 128.819 23.8279C128.964 23.9454 129.055 24.0991 129.091 24.2889C129.137 24.4936 129.146 24.7047 129.118 24.9125C129.1 25.1297 129.064 25.3422 129.009 25.5497L128.791 26.4002L128.846 26.2554C129.1 25.6133 129.344 25.1024 129.579 24.7226C129.823 24.334 130.081 24.058 130.352 23.8955C130.617 23.734 130.923 23.6493 131.234 23.6509C131.559 23.6509 131.807 23.7458 131.979 23.9357C132.161 24.1256 132.251 24.3606 132.251 24.6414C132.251 24.8666 132.196 25.0799 132.088 25.2786C131.983 25.4651 131.834 25.6233 131.654 25.7396C131.482 25.8483 131.284 25.9022 131.057 25.9022C130.831 25.9022 130.65 25.8434 130.514 25.726C130.388 25.6085 130.324 25.4363 130.324 25.211C130.324 25.0115 130.37 24.8312 130.46 24.6679C130.548 24.5089 130.668 24.3703 130.813 24.2616C130.958 24.1441 131.116 24.0629 131.288 24.017C131.269 23.9984 131.245 23.9846 131.22 23.9768C131.189 23.9672 131.157 23.9626 131.125 23.9631C130.926 23.9631 130.723 24.0355 130.514 24.1803C130.307 24.3155 130.089 24.5376 129.863 24.8449C129.637 25.1523 129.407 25.5586 129.172 26.0647C128.907 26.6631 128.672 27.2743 128.467 27.896C128.364 28.1969 128.261 28.5203 128.158 28.8671L127.653 30.8384Z" fill="black"/>
<path fill-rule="evenodd" clip-rule="evenodd" d="M122.586 28.7432L122.529 28.9541C122.443 29.2603 122.384 29.5734 122.353 29.8898C122.325 30.1795 122.37 30.4232 122.488 30.622C122.669 30.8931 122.976 31.0291 123.41 31.0291C123.618 31.0291 123.826 30.9881 124.034 30.9068C124.251 30.8255 124.454 30.6855 124.644 30.486C124.834 30.2784 124.992 29.9888 125.119 29.6187L125.458 28.629H125.2L124.996 29.2389C124.834 29.7088 124.676 30.0209 124.523 30.1746C124.369 30.3275 124.219 30.4047 124.074 30.4047C123.957 30.4047 123.88 30.3685 123.844 30.2961C123.816 30.204 123.807 30.1071 123.817 30.0113C123.835 29.8963 123.862 29.783 123.898 29.6726L125.648 23.651C125.376 23.716 125.099 23.7615 124.82 23.7869C124.54 23.8143 124.238 23.832 123.912 23.8408L123.715 24.5666C123.707 24.3823 123.654 24.2029 123.559 24.0444C123.489 23.9208 123.386 23.8188 123.261 23.7495C123.137 23.6802 122.996 23.6461 122.854 23.651C122.456 23.651 122.059 23.7732 121.661 24.017C121.238 24.283 120.858 24.6125 120.535 24.9938C120.17 25.4097 119.851 25.8643 119.585 26.3496C119.319 26.8362 119.105 27.3501 118.948 27.8823C118.8 28.3612 118.723 28.8591 118.718 29.3604C118.718 29.8673 118.836 30.2736 119.071 30.5809C119.305 30.8795 119.667 31.0283 120.155 31.0283C120.499 31.0283 120.829 30.9293 121.146 30.7306C121.471 30.5311 121.778 30.2012 122.068 29.7409C122.247 29.4634 122.419 29.1311 122.586 28.7432ZM121.417 30.1199C121.208 30.3098 121.023 30.4047 120.861 30.4047C120.725 30.4047 120.621 30.3372 120.549 30.2012C120.485 30.0564 120.454 29.8174 120.454 29.4827C120.454 29.0031 120.508 28.5107 120.616 28.0046C120.725 27.4977 120.87 27.0101 121.051 26.5403C121.241 26.0696 121.448 25.6496 121.674 25.2787C121.9 24.9085 122.126 24.6141 122.353 24.3968C122.587 24.1796 122.809 24.0718 123.017 24.0718C123.234 24.0718 123.387 24.1804 123.478 24.3968C123.568 24.5931 123.592 24.8562 123.548 25.1853L123.147 26.6674L123.193 26.4316C123.048 27.0101 122.876 27.5436 122.678 28.032C122.505 28.4686 122.296 28.8903 122.054 29.2928C121.837 29.6452 121.624 29.9212 121.417 30.1199ZM116.895 29.6862C116.831 29.9035 116.814 30.0797 116.841 30.2149C116.868 30.3508 116.958 30.4184 117.112 30.4184C117.257 30.4184 117.397 30.342 117.532 30.1883C117.677 30.025 117.831 29.7136 117.993 29.2518L118.21 28.6419H118.468L118.143 29.6315C118.025 30.0024 117.867 30.2873 117.668 30.486C117.499 30.6708 117.29 30.8147 117.057 30.9068C116.854 30.9858 116.638 31.0272 116.42 31.0291C115.86 31.0291 115.525 30.807 115.417 30.3645C115.36 30.171 115.341 29.9681 115.363 29.7675C115.381 29.5326 115.435 29.2606 115.525 28.9541L115.615 28.6177C115.485 28.9026 115.356 29.1592 115.227 29.3877C114.92 29.9485 114.59 30.3645 114.237 30.6349C113.894 30.8944 113.474 31.033 113.043 31.0291C112.754 31.0291 112.492 30.9647 112.257 30.8392C112.015 30.6959 111.821 30.4832 111.701 30.2285C111.565 29.9485 111.498 29.5913 111.498 29.1576C111.498 28.7416 111.565 28.2887 111.701 27.8011C111.836 27.3038 112.031 26.8114 112.284 26.323C112.534 25.8396 112.849 25.3924 113.22 24.9938C113.59 24.5867 114.002 24.2616 114.454 24.017C114.918 23.7723 115.435 23.6465 115.959 23.651C116.23 23.651 116.443 23.7234 116.596 23.8682C116.685 23.9462 116.752 24.0452 116.795 24.1659L117.424 21.7931C117.506 21.4858 117.492 21.2597 117.383 21.1149C117.275 20.97 116.999 20.8976 116.556 20.8976L116.651 20.6136C117.183 20.6105 117.714 20.5605 118.238 20.4639C118.688 20.3681 119.128 20.2321 119.553 20.0576L116.895 29.6862ZM115.783 27.6651C115.904 27.3674 116.015 27.0536 116.117 26.7229L116.703 24.5119C116.675 24.3799 116.615 24.2567 116.529 24.153C116.476 24.0907 116.409 24.0412 116.334 24.0083C116.259 23.9754 116.177 23.96 116.095 23.9631C115.824 23.9631 115.548 24.0718 115.268 24.2882C114.996 24.5054 114.739 24.8039 114.495 25.1837C114.236 25.5813 114.018 26.0037 113.844 26.4445C113.651 26.9232 113.501 27.4181 113.397 27.9234C113.29 28.4134 113.235 28.9135 113.233 29.4151C113.233 29.7586 113.269 30.0161 113.342 30.1875C113.423 30.3508 113.55 30.4321 113.722 30.4321C113.903 30.4321 114.11 30.3235 114.345 30.1062C114.581 29.8809 114.82 29.5639 115.064 29.1568C115.346 28.6811 115.587 28.182 115.783 27.6651Z" fill="black"/>
<path d="M104.029 30.8383H105.697L105.854 30.2252L105.846 30.2695C106.018 29.6363 106.212 29.0264 106.429 28.4382C106.64 27.8769 106.876 27.325 107.134 26.784C107.379 26.2771 107.623 25.8346 107.867 25.4548C108.111 25.075 108.346 24.7813 108.572 24.5729C108.798 24.3557 109.006 24.2479 109.196 24.2479C109.349 24.2479 109.444 24.3018 109.48 24.4104C109.518 24.5337 109.523 24.6646 109.494 24.7902C109.467 24.9372 109.431 25.0823 109.386 25.2247L108.152 28.954C108.025 29.3338 107.953 29.6588 107.935 29.93C107.916 30.2011 107.966 30.4232 108.084 30.5946C108.175 30.7305 108.301 30.8343 108.463 30.9067C108.636 30.9872 108.839 31.029 109.074 31.029C109.291 31.029 109.508 30.988 109.725 30.9067C109.951 30.8343 110.159 30.6984 110.349 30.4996C110.547 30.3009 110.711 30.0112 110.837 29.6315L111.176 28.6418H110.918L110.701 29.2517C110.53 29.7224 110.367 30.0338 110.213 30.1874C110.069 30.3419 109.929 30.4183 109.793 30.4183C109.648 30.4183 109.558 30.3596 109.521 30.2413C109.485 30.1158 109.508 29.93 109.589 29.6862L110.918 25.6986C111.036 25.3462 111.094 25.0163 111.094 24.7089C111.103 24.3927 111.018 24.1393 110.837 23.9494C110.665 23.7506 110.357 23.6517 109.915 23.6517C109.58 23.6517 109.259 23.7241 108.952 23.8681C108.644 24.0129 108.346 24.2656 108.057 24.6277C107.767 24.9801 107.469 25.4596 107.162 26.0647C106.958 26.4728 106.771 26.8891 106.601 27.3126L107.053 25.5497C107.108 25.3325 107.148 25.1152 107.175 24.8988C107.203 24.6735 107.193 24.4692 107.148 24.2881C107.105 24.1012 106.994 23.9369 106.837 23.8271C106.683 23.7096 106.457 23.6509 106.158 23.6509C105.796 23.6509 105.466 23.7506 105.168 23.9494C104.87 24.1481 104.625 24.5142 104.436 25.0477L104.083 26.0647H104.341L104.572 25.4274C104.734 24.9849 104.883 24.6816 105.019 24.519C105.164 24.3477 105.321 24.2616 105.494 24.2616C105.62 24.2616 105.697 24.2978 105.725 24.3702C105.76 24.4426 105.77 24.5327 105.751 24.6413C105.731 24.7603 105.704 24.8779 105.67 24.9938L104.029 30.8383Z" fill="black"/>
<path fill-rule="evenodd" clip-rule="evenodd" d="M100.572 28.954L100.63 28.7432C100.485 29.0895 100.311 29.4232 100.111 29.7409C99.8218 30.2011 99.5144 30.5318 99.1886 30.7305C98.8724 30.9293 98.5425 31.0282 98.1989 31.0282C97.7105 31.0282 97.3493 30.8794 97.1143 30.5809C96.8786 30.2735 96.7611 29.8672 96.7611 29.3603C96.7611 28.8904 96.8383 28.398 96.992 27.8823C97.1489 27.35 97.3626 26.8361 97.6293 26.3495C97.895 25.8641 98.2134 25.4094 98.5787 24.9938C98.9016 24.6124 99.2813 24.283 99.7043 24.017C100.102 23.7732 100.5 23.6509 100.898 23.6509C101.205 23.6509 101.44 23.782 101.603 24.0451C101.69 24.1795 101.742 24.3533 101.759 24.5665L101.956 23.8408C102.281 23.8319 102.584 23.8142 102.864 23.7869C103.154 23.7595 103.429 23.7144 103.691 23.6509L101.942 29.6733C101.905 29.7837 101.878 29.897 101.861 30.012C101.85 30.1078 101.86 30.2048 101.888 30.2969C101.924 30.3693 102.001 30.4055 102.118 30.4055C102.263 30.4055 102.412 30.329 102.565 30.1754C102.719 30.0217 102.878 29.7087 103.04 29.2396L103.244 28.6289H103.501L103.162 29.6186C103.036 29.9895 102.878 30.2783 102.688 30.4875C102.519 30.6719 102.31 30.8155 102.078 30.9075C101.879 30.9871 101.667 31.0286 101.454 31.0298C101.02 31.0298 100.712 30.8939 100.531 30.6227C100.414 30.424 100.369 30.1802 100.396 29.8905C100.428 29.5741 100.487 29.2602 100.572 28.954ZM98.9038 30.4047C99.0671 30.4047 99.2521 30.3097 99.4605 30.1198C99.6681 29.9211 99.8805 29.6451 100.098 29.2927C100.314 28.9403 100.523 28.5203 100.721 28.0319C100.92 27.5435 101.092 27.0101 101.237 26.4308L101.191 26.6673L101.592 25.1861C101.635 24.8562 101.611 24.5931 101.522 24.3975C101.431 24.1803 101.277 24.0717 101.06 24.0717C100.852 24.0717 100.631 24.1803 100.396 24.3967C100.17 24.614 99.9441 24.9077 99.718 25.2786C99.4919 25.6487 99.2835 26.0695 99.0936 26.5394C98.9115 27.0156 98.7665 27.5052 98.66 28.0038C98.5537 28.4896 98.4992 28.9853 98.4974 29.4826C98.4974 29.8173 98.5288 30.0571 98.5924 30.2011C98.6648 30.3371 98.7686 30.4047 98.9038 30.4047Z" fill="black"/>
<path d="M97.7016 24.1121L97.7426 23.8409H96.127L96.7658 21.617C96.4985 21.6828 96.2266 21.7283 95.9524 21.753C95.6724 21.7795 95.369 21.7981 95.044 21.8069L94.4606 23.8409H93.2264L93.1588 24.1121H94.3834L92.9955 28.9541C92.878 29.3516 92.8378 29.7089 92.874 30.0251C92.919 30.3324 93.0453 30.577 93.2537 30.7572C93.4702 30.9383 93.7824 31.0292 94.1895 31.0292C94.6505 31.0292 95.048 30.9069 95.3827 30.6623C95.7174 30.4185 95.9797 30.0162 96.1696 29.4554L96.4407 28.642H96.1825L95.9797 29.1979C95.8164 29.6501 95.6361 29.9663 95.4366 30.1474C95.2467 30.3284 95.0568 30.4185 94.867 30.4185C94.7923 30.421 94.7181 30.4063 94.6501 30.3756C94.582 30.3449 94.5219 30.2991 94.4743 30.2415C94.3834 30.1248 94.3745 29.9398 94.447 29.6863L96.0489 24.1121H97.7016ZM93.2103 21.1423C93.1202 21.3772 92.9979 21.7216 92.8442 22.173C92.6994 22.6155 92.5553 23.1948 92.4105 23.9085H92.1394C92.1659 23.7822 92.1844 23.651 92.1933 23.5159C92.2106 23.3946 92.2197 23.2723 92.2206 23.1498C92.2206 22.7966 92.1482 22.49 92.0034 22.2277C91.8643 21.9526 91.641 21.7291 91.3661 21.5897C91.0861 21.4271 90.7241 21.3459 90.2816 21.3459C89.802 21.3459 89.3949 21.4722 89.061 21.7256C88.7263 21.9694 88.5589 22.3629 88.5589 22.9052C88.5589 23.2399 88.6353 23.5569 88.789 23.8546C88.9524 24.1443 89.1559 24.4291 89.3997 24.7091C89.6532 24.9802 89.9195 25.2562 90.1995 25.5362C90.4803 25.8074 90.7426 26.0882 90.9864 26.377C91.2302 26.6667 91.4297 26.974 91.5834 27.2991C91.7459 27.6161 91.8272 27.9637 91.8272 28.3435C91.8272 28.823 91.7097 29.2341 91.4748 29.5777C91.2456 29.9152 90.9444 30.1977 90.5929 30.4048C90.2245 30.6155 89.827 30.7708 89.4134 30.8659C89.0152 30.9722 88.605 31.0271 88.1928 31.0292C87.7857 31.0292 87.447 30.997 87.1758 30.9343C86.9441 30.8906 86.7201 30.8128 86.5112 30.7033C86.3337 30.606 86.1572 30.5068 85.9818 30.4056C85.902 30.3386 85.8099 30.2878 85.7106 30.256C85.6474 30.2242 85.5785 30.2056 85.5079 30.2013C85.3896 30.2013 85.2906 30.26 85.2094 30.3783C85.1027 30.5549 85.0119 30.7407 84.9382 30.9335H84.6663C84.8903 30.382 85.0763 29.8158 85.223 29.239C85.3309 28.823 85.4532 28.3032 85.5891 27.6789H85.8603C85.8224 27.8585 85.7908 28.0394 85.7653 28.2212C85.738 28.4022 85.7291 28.5832 85.738 28.7643C85.7653 29.3967 85.9593 29.8851 86.3213 30.2286C86.6922 30.5722 87.2345 30.7436 87.9482 30.7436C88.5541 30.7436 89.0111 30.6172 89.3184 30.3646C89.6258 30.1023 89.7795 29.7225 89.7795 29.2253C89.7795 28.8455 89.7071 28.5012 89.5622 28.1946C89.4255 27.8757 89.2428 27.5786 89.0199 27.3128C88.7901 27.0377 88.5504 26.7709 88.3014 26.513C88.0519 26.2551 87.812 25.988 87.5821 25.7124C87.3601 25.4386 87.1734 25.138 87.0261 24.8177C86.8781 24.4753 86.8043 24.1053 86.8097 23.7323C86.8097 23.2809 86.9047 22.8875 87.0945 22.5528C87.2858 22.2263 87.5445 21.9443 87.8533 21.7256C88.17 21.4995 88.5233 21.3297 88.8976 21.2236C89.2619 21.1086 89.6413 21.0492 90.0233 21.0474C90.5117 21.0474 90.914 21.1061 91.2302 21.2244C91.5472 21.341 91.8183 21.4818 92.0444 21.6444L92.3019 21.8069C92.3832 21.8431 92.4467 21.8608 92.4918 21.8608C92.6181 21.8608 92.7678 21.6218 92.9391 21.1423H93.2103Z" fill="black"/>
<path fill-rule="evenodd" clip-rule="evenodd" d="M80.1195 30.2149C80.0921 30.0797 80.1106 29.9035 80.1742 29.6862L82.8318 20.0576C82.4063 20.2321 81.966 20.3681 81.5162 20.4639C81.0552 20.5549 80.5266 20.6039 79.9296 20.6136L79.8346 20.8984C80.2772 20.8984 80.5539 20.9708 80.6618 21.1157C80.7704 21.2605 80.7841 21.4858 80.7028 21.7931L80.0736 24.1659C80.0341 24.0514 79.9659 23.9489 79.8757 23.8682C79.722 23.7234 79.5096 23.651 79.2384 23.651C78.6953 23.651 78.1941 23.7732 77.733 24.017C77.2693 24.2704 76.8519 24.6007 76.4988 24.9938C76.1277 25.3922 75.8129 25.8394 75.563 26.323C75.3167 26.7936 75.1212 27.2891 74.9797 27.8011C74.8509 28.242 74.7824 28.6983 74.7761 29.1576C74.7761 29.5913 74.8445 29.9485 74.9797 30.2285C75.1157 30.4997 75.3007 30.7032 75.5357 30.8384C75.7706 30.9655 76.0329 31.0283 76.3226 31.0283C76.7651 31.0283 77.1634 30.898 77.5158 30.6357C77.8682 30.3645 78.1981 29.9485 78.5054 29.3877C78.6342 29.1592 78.7637 28.9026 78.8933 28.6177L78.8047 28.9541C78.7225 29.2189 78.6677 29.4915 78.6414 29.7675C78.6198 29.9681 78.6381 30.171 78.6953 30.3645C78.8039 30.807 79.1378 31.0291 79.6995 31.0291C79.907 31.0291 80.1195 30.9881 80.3367 30.9068C80.5539 30.8255 80.7567 30.6855 80.9466 30.486C81.1461 30.2873 81.3038 30.0032 81.4213 29.6315L81.7472 28.6419H81.4897L81.2724 29.2518C81.1099 29.7136 80.9562 30.025 80.8114 30.1875C80.6754 30.342 80.5354 30.4184 80.3906 30.4184C80.2377 30.4184 80.1468 30.3508 80.1195 30.2149ZM79.3953 26.7229C79.2939 27.0536 79.1829 27.3682 79.0614 27.6651C78.8361 28.2444 78.5964 28.7416 78.3429 29.1576C78.0991 29.5639 77.8593 29.8801 77.6244 30.107C77.3895 30.3235 77.1819 30.4321 77 30.4321C76.8287 30.4321 76.7023 30.3508 76.6211 30.1883C76.5487 30.0161 76.5124 29.7586 76.5124 29.4151C76.5124 28.9267 76.5664 28.4295 76.675 27.9234C76.7836 27.4084 76.9324 26.9152 77.1223 26.4453C77.2973 26.0042 77.5156 25.5816 77.7741 25.1837C78.0179 24.8039 78.2753 24.5054 78.5465 24.2882C78.8265 24.071 79.1024 23.9631 79.3736 23.9631C79.5546 23.9631 79.6995 24.0267 79.8081 24.153C79.8837 24.2351 79.9416 24.3542 79.9819 24.5119L79.3953 26.7229Z" fill="black"/>
<path d="M68.9764 30.8383H67.3085L68.9499 24.9938C68.9861 24.8674 69.0126 24.75 69.0303 24.6413C69.0505 24.5504 69.0412 24.4555 69.0038 24.3702C68.9764 24.2978 68.8992 24.2616 68.7728 24.2616C68.6015 24.2616 68.443 24.3477 68.2981 24.519C68.163 24.6816 68.0133 24.9849 67.8508 25.4282L67.6207 26.0647H67.3632L67.7156 25.0477C67.9055 24.5142 68.1501 24.1481 68.4478 23.9494C68.7455 23.7506 69.0754 23.6517 69.4374 23.6517C69.7359 23.6517 69.962 23.7096 70.1157 23.8271C70.2733 23.9368 70.3846 24.1011 70.4279 24.2881C70.473 24.4692 70.4818 24.6727 70.4553 24.8988C70.4276 25.118 70.3868 25.3354 70.333 25.5497L69.8808 27.3134C70.0723 26.8395 70.2589 26.4243 70.4416 26.0647C70.7489 25.4596 71.0466 24.9801 71.3363 24.6277C71.6259 24.2656 71.9236 24.0129 72.231 23.8681C72.5392 23.7233 72.8594 23.6509 73.1941 23.6509C73.6366 23.6509 73.9448 23.7506 74.1162 23.9494C74.2972 24.1393 74.3833 24.3919 74.3736 24.7089C74.3736 25.0163 74.3157 25.3462 74.1974 25.6986L72.869 29.6862C72.787 29.93 72.7645 30.1158 72.8007 30.2413C72.8369 30.3596 72.9278 30.4183 73.0726 30.4183C73.2078 30.4183 73.3478 30.3419 73.4926 30.1882C73.6463 30.0338 73.8088 29.7216 73.981 29.2517L74.1982 28.6418H74.4557L74.1162 29.6315C73.9898 30.0112 73.8265 30.3009 73.6286 30.5004C73.4582 30.6865 73.2434 30.8263 73.0042 30.9067C72.7964 30.9865 72.5759 31.0279 72.3533 31.029C72.1184 31.029 71.9148 30.988 71.7434 30.9067C71.5801 30.8343 71.4538 30.7297 71.3636 30.5946C71.2462 30.4232 71.1963 30.2011 71.214 29.93C71.2325 29.6588 71.3049 29.3338 71.4312 28.954L72.6655 25.2247C72.7105 25.0798 72.7467 24.935 72.7741 24.7902C72.8026 24.6646 72.7978 24.5337 72.7604 24.4104C72.7242 24.3018 72.6293 24.2479 72.4756 24.2479C72.2857 24.2479 72.0773 24.3565 71.852 24.5729C71.6259 24.7813 71.3902 25.075 71.1464 25.4548C70.8758 25.8827 70.6313 26.3266 70.4142 26.784C70.1704 27.2909 69.9347 27.8412 69.7086 28.4382C69.4913 29.0256 69.2982 29.6363 69.1261 30.2695L69.1341 30.2252L68.9764 30.8383Z" fill="black"/>
<path fill-rule="evenodd" clip-rule="evenodd" d="M63.9088 28.7431L63.8525 28.9539C63.7671 29.2603 63.7079 29.5733 63.6755 29.8897C63.6481 30.1793 63.6932 30.4231 63.8107 30.6219C63.9917 30.893 64.2991 31.029 64.7336 31.029C64.9654 31.0273 65.1945 30.9783 65.4068 30.8849C65.619 30.7915 65.8099 30.6557 65.9678 30.4859C66.1577 30.2783 66.3154 29.9886 66.4425 29.6185L66.7804 28.6289H66.523L66.3202 29.2388C66.1569 29.7086 65.9984 30.0208 65.8455 30.1745C65.6918 30.3274 65.5422 30.4046 65.3981 30.4046C65.2799 30.4046 65.2034 30.3684 65.1672 30.296C65.1389 30.2039 65.1296 30.107 65.1399 30.0112C65.1584 29.8937 65.1849 29.7811 65.2219 29.6724L66.9711 23.6508C66.699 23.7159 66.4226 23.7613 66.144 23.7868C65.8632 23.8142 65.5607 23.8319 65.2348 23.8407L65.0385 24.5665C65.0301 24.3822 64.9765 24.2029 64.8824 24.0443C64.8118 23.9208 64.7089 23.8189 64.5847 23.7496C64.4605 23.6803 64.3197 23.6461 64.1776 23.6508C63.7793 23.6508 63.381 23.7731 62.9835 24.0169C62.5861 24.2615 62.2111 24.5866 61.8579 24.9937C61.4926 25.4094 61.1742 25.864 60.9085 26.3494C60.6418 26.8361 60.4281 27.3499 60.2712 27.8822C60.1233 28.3611 60.0458 28.859 60.0411 29.3602C60.0411 29.8671 60.1586 30.2735 60.3935 30.5808C60.6285 30.8793 60.9906 31.0282 61.4781 31.0282C61.8217 31.0282 62.1524 30.9292 62.4678 30.7305C62.7937 30.5309 63.1018 30.201 63.3907 29.7408C63.5701 29.4632 63.7423 29.1309 63.9088 28.7431ZM62.7398 30.1198C62.5322 30.3097 62.3463 30.4046 62.1838 30.4046C62.0478 30.4046 61.944 30.337 61.8716 30.201C61.8088 30.0562 61.7767 29.8173 61.7767 29.4825C61.7767 29.003 61.8314 28.5106 61.94 28.0045C62.0478 27.4976 62.1926 27.01 62.3737 26.5401C62.5636 26.0694 62.7711 25.6494 62.9972 25.2785C63.2233 24.9084 63.4494 24.6139 63.6755 24.3967C63.9104 24.1794 64.1317 24.0716 64.3401 24.0716C64.5573 24.0716 64.7102 24.1802 64.8011 24.3967C64.8913 24.593 64.9138 24.8561 64.8711 25.1852L64.4704 26.6673L64.5163 26.4315C64.3715 27.01 64.2001 27.5435 64.0014 28.0319C63.8018 28.5194 63.5942 28.9402 63.377 29.2927C63.1598 29.6451 62.9473 29.9211 62.7398 30.1198Z" fill="black"/>
<path d="M56.414 30.8384H54.7461L56.373 24.9938C56.4543 24.7226 56.4816 24.5327 56.4543 24.4241C56.4277 24.3155 56.3464 24.2616 56.2105 24.2616C56.0391 24.2616 55.8806 24.3477 55.7358 24.5191C55.5909 24.6904 55.4421 24.9938 55.2884 25.4283L55.0575 26.0647H54.8L55.1524 25.0477C55.2795 24.6856 55.4372 24.4064 55.6271 24.2069C55.817 23.9993 56.0254 23.8545 56.2515 23.7732C56.4768 23.6919 56.7077 23.6509 56.9435 23.6509C57.2323 23.6509 57.4447 23.7096 57.5799 23.8279C57.7237 23.9433 57.8204 24.1073 57.8518 24.2889C57.8969 24.4788 57.9057 24.6864 57.8784 24.9125C57.8607 25.1297 57.8245 25.3422 57.7698 25.5497L57.5525 26.4002L57.5743 26.3415L57.6072 26.2554C57.8607 25.6133 58.1045 25.1024 58.3394 24.7226C58.584 24.334 58.8415 24.058 59.1126 23.8955C59.3783 23.734 59.6836 23.6493 59.9945 23.6509C60.3195 23.6509 60.5682 23.7458 60.7403 23.9357C60.9206 24.1256 61.0115 24.3606 61.0115 24.6414C61.0115 24.8666 60.9568 25.0799 60.8482 25.2786C60.7429 25.465 60.5941 25.6232 60.4145 25.7396C60.2353 25.8501 60.028 25.9066 59.8175 25.9022C59.5922 25.9022 59.4111 25.8434 59.2752 25.726C59.1489 25.6085 59.0853 25.4363 59.0853 25.211C59.0853 25.0115 59.1303 24.8312 59.2213 24.6679C59.3114 24.5054 59.4289 24.3702 59.5737 24.2616C59.7185 24.1441 59.8762 24.0629 60.0484 24.017C60.0293 23.9985 60.0062 23.9847 59.9808 23.9768C59.9628 23.9707 59.9442 23.9666 59.9253 23.9647C59.9119 23.9634 59.8985 23.9629 59.8851 23.9631C59.6871 23.9631 59.4828 24.0355 59.2752 24.1803C59.0676 24.3155 58.8503 24.5376 58.6243 24.8449C58.399 25.1523 58.168 25.5586 57.9323 26.0647C57.6672 26.6631 57.432 27.2743 57.2275 27.896C57.1253 28.1961 57.0223 28.5203 56.9193 28.8671L56.414 30.8384Z" fill="black"/>
<path fill-rule="evenodd" clip-rule="evenodd" d="M53.8769 21.7394C53.4247 21.4135 52.7014 21.251 51.7069 21.251C51.3996 21.251 51.0922 21.2558 50.784 21.2647C50.4863 21.2735 50.1428 21.2783 49.7542 21.2783H49.0759C48.8313 21.2687 48.6012 21.2647 48.3839 21.2647C48.2031 21.2567 48.0223 21.2476 47.8416 21.2373L47.774 21.5085C48.1264 21.5085 48.3662 21.5535 48.4925 21.6444C48.6285 21.7249 48.6913 21.852 48.6824 22.0242C48.6642 22.2438 48.6279 22.4615 48.5738 22.6751L46.7836 29.4016C46.7031 29.7266 46.6122 29.9712 46.5124 30.1337C46.4223 30.2892 46.2774 30.4054 46.1061 30.4596C45.9339 30.5135 45.6942 30.5497 45.3868 30.5674L45.3329 30.8386C45.4858 30.8305 45.6716 30.8257 45.8881 30.8257C46.1053 30.816 46.3362 30.812 46.58 30.812C47.2625 30.7913 47.9456 30.7958 48.6277 30.8257C48.9986 30.8337 49.3382 30.8394 49.6455 30.8394C50.2329 30.8394 50.7889 30.7798 51.3135 30.6624C51.797 30.5527 52.2595 30.3652 52.6829 30.1072C53.0617 29.8816 53.3822 29.5701 53.6186 29.198C53.8536 28.8359 53.971 28.4119 53.971 27.9235C53.971 27.3716 53.7458 26.8968 53.2936 26.4994C52.851 26.1011 52.1494 25.8662 51.1912 25.7937C51.7891 25.7079 52.3699 25.5296 52.913 25.2651C53.4199 25.0028 53.8174 24.6818 54.107 24.302C54.3986 23.9415 54.5566 23.4912 54.5544 23.0275C54.5544 22.4852 54.3299 22.0556 53.8769 21.7394ZM49.5482 25.9708L48.6414 29.4016C48.5875 29.6268 48.5513 29.8264 48.5336 29.9978C48.5239 30.1699 48.569 30.3011 48.6687 30.392C48.7685 30.4821 48.9536 30.5272 49.2247 30.5272C49.8668 30.5272 50.3914 30.4049 50.7977 30.1611C51.1958 29.927 51.513 29.5769 51.7069 29.1578C51.9056 28.7233 52.0046 28.2349 52.0046 27.6934C52.0046 27.3579 51.9459 27.0642 51.8284 26.8116C51.725 26.5549 51.539 26.34 51.2998 26.2009C51.056 26.0472 50.7301 25.9708 50.323 25.9708H49.5482ZM49.6093 25.7398H50.2289C50.7438 25.7398 51.1823 25.6087 51.5436 25.3464C51.9145 25.0752 52.1953 24.7228 52.3852 24.2891C52.5829 23.8595 52.6845 23.3919 52.6829 22.9189C52.6829 22.4667 52.5928 22.1191 52.4117 21.8745C52.2404 21.6308 51.937 21.5085 51.5025 21.5085C51.1871 21.5085 50.961 21.572 50.8251 21.6983C50.6899 21.8158 50.5724 22.0733 50.4727 22.4708L49.6093 25.7398Z" fill="black"/>
</g>
<defs>
<clipPath id="clip0_1_430">
<rect width="140" height="31.3793" fill="white" transform="translate(-0.000366211)"/>
</clipPath>
</defs>
</svg>
