<svg width="140" height="21" viewBox="0 0 140 21" fill="none" xmlns="http://www.w3.org/2000/svg">
<g clip-path="url(#clip0_1_449)">
<path d="M84.7185 5.81494V14.7727H82.5969V5.81494H84.7185Z" fill="black"/>
<path d="M32.7403 12.651H41.1087V14.7726H30.6186V6.05078H32.7403V12.651Z" fill="black"/>
<path d="M107.231 12.0029C107.231 11.6449 106.94 11.3546 106.583 11.3546H100.571C99.0417 11.3546 97.8018 10.1145 97.8018 8.58478C97.8018 7.05502 99.0417 5.81494 100.571 5.81494H109.117V7.93651H100.571C100.213 7.93651 99.9229 8.22675 99.9229 8.58478C99.9229 8.94281 100.213 9.23305 100.571 9.23305H106.583C108.112 9.23305 109.352 10.4731 109.352 12.0029C109.352 13.5326 108.112 14.7727 106.583 14.7727H98.0376V12.6511H106.583C106.94 12.6511 107.231 12.3609 107.231 12.0029Z" fill="black"/>
<path fill-rule="evenodd" clip-rule="evenodd" d="M93.9714 5.81494C95.8269 5.81494 97.3308 7.31891 97.3308 9.17412C97.3308 11.0293 95.8269 12.5332 93.9714 12.5332H87.5478V14.7727H85.4262V5.81494H93.9714ZM87.5478 10.4117H93.9714C94.6549 10.4117 95.2092 9.8576 95.2092 9.17412C95.2092 8.49059 94.6549 7.93651 93.9714 7.93651H87.5478V10.4117Z" fill="black"/>
<path d="M52.3057 10.2938C52.3057 8.99191 51.2505 7.93651 49.9486 7.93651H45.3519C44.05 7.93651 42.9946 8.99191 42.9946 10.2938C42.9946 11.5957 44.05 12.6511 45.3519 12.6511H49.9486C51.2505 12.6511 52.3057 11.5958 52.3057 10.2938ZM54.4273 10.2938C54.4273 12.7674 52.422 14.7727 49.9486 14.7727H45.3519C42.8782 14.7727 40.873 12.7674 40.873 10.2938C40.873 7.82024 42.8782 5.81494 45.3519 5.81494H49.9486C52.422 5.81494 54.4273 7.82024 54.4273 10.2938Z" fill="black"/>
<path d="M79.8866 10.2938C79.8866 8.99191 78.8315 7.93651 77.5298 7.93651H72.933C71.6307 7.93651 70.5756 8.99191 70.5756 10.2938C70.5756 11.5957 71.6307 12.6511 72.933 12.6511H77.5298C78.8315 12.6511 79.8866 11.5958 79.8866 10.2938ZM82.0082 10.2938C82.0082 12.7674 80.003 14.7727 77.5298 14.7727H72.933C70.4593 14.7727 68.454 12.7674 68.454 10.2938C68.454 7.82024 70.4593 5.81494 72.933 5.81494H77.5298C80.003 5.81494 82.0082 7.82024 82.0082 10.2938Z" fill="black"/>
<path d="M109.823 11.001V5.81494H111.945V11.001C111.945 11.9124 112.684 12.6511 113.595 12.6511H119.606C120.518 12.6511 121.256 11.9124 121.256 11.001V5.81494H123.378V11.001C123.378 13.0841 121.69 14.7727 119.606 14.7727H113.595C111.512 14.7727 109.823 13.0841 109.823 11.001Z" fill="black"/>
<path d="M54.7806 10.2938C54.7806 7.82024 56.7854 5.81494 59.2591 5.81494H67.6277V7.93651H59.2591C57.9574 7.93651 56.9017 8.99191 56.9017 10.2938C56.9017 11.5957 57.9574 12.6511 59.2591 12.6511H65.5653C65.923 12.6511 66.2133 12.3609 66.2133 12.0029C66.2133 11.6449 65.923 11.3546 65.5653 11.3546H58.6698V9.23305H65.5653C67.095 9.23305 68.3349 10.4731 68.3349 12.0029C68.3349 13.5326 67.095 14.7727 65.5653 14.7727H59.2591C56.7854 14.7727 54.7806 12.7674 54.7806 10.2938Z" fill="black"/>
<path d="M135.232 5.81494C136.342 5.81494 137.325 6.53527 137.658 7.59443L139.921 14.7727H137.697L135.635 8.23221C135.579 8.05623 135.416 7.93651 135.232 7.93651C135.051 7.93656 134.891 8.05149 134.833 8.22001L134.822 8.25444L133.567 13.1533C133.323 14.1062 132.464 14.7727 131.48 14.7727C130.48 14.7727 129.611 14.0841 129.383 13.1102L128.245 8.25223C128.202 8.06735 128.037 7.93656 127.847 7.93651C127.669 7.93656 127.511 8.0517 127.457 8.22129L125.369 14.7727H123.143L125.436 7.57719C125.77 6.5276 126.745 5.81494 127.847 5.81494C129.022 5.81494 130.043 6.62406 130.311 7.76825L131.449 12.6261C131.452 12.6408 131.465 12.6511 131.48 12.6511C131.495 12.6511 131.508 12.6411 131.512 12.6269L132.767 7.72795L132.781 7.67535C133.087 6.57784 134.088 5.81494 135.232 5.81494Z" fill="black"/>
<path d="M12.8534 0L15.2798 2.02206L13.1829 3.76954C12.992 3.9286 12.7148 3.9286 12.5239 3.76954L10.4269 2.02206L12.8534 0Z" fill="black"/>
<path fill-rule="evenodd" clip-rule="evenodd" d="M12.5237 5.84391C12.7146 6.00296 12.9919 6.00296 13.1828 5.84391L16.5245 3.05908L18.4467 4.66089L14.1713 8.22376C13.4078 8.85999 12.2987 8.85999 11.5352 8.22376L7.25983 4.66089L9.182 3.05908L12.5237 5.84391Z" fill="black"/>
<path d="M12.8534 20.5881L10.4269 18.566L12.5239 16.8185C12.7148 16.6595 12.992 16.6595 13.1829 16.8185L15.2798 18.566L12.8534 20.5881Z" fill="black"/>
<path fill-rule="evenodd" clip-rule="evenodd" d="M13.1828 14.7437C12.9919 14.5847 12.7146 14.5847 12.5237 14.7437L9.182 17.5286L7.25983 15.9267L11.5352 12.3639C12.2987 11.7277 13.4078 11.7277 14.1713 12.3639L18.4467 15.9267L16.5245 17.5286L13.1828 14.7437Z" fill="black"/>
<path d="M25.2063 10.294L22.7798 8.27197L20.8279 9.89865C20.5809 10.1044 20.5809 10.4837 20.8279 10.6894L22.7798 12.3161L25.2063 10.294Z" fill="black"/>
<path fill-rule="evenodd" clip-rule="evenodd" d="M18.3381 10.6894C18.0911 10.4837 18.0911 10.1044 18.3381 9.89864L21.5348 7.23463L19.6126 5.63281L15.9172 8.7124C14.9295 9.53552 14.9295 11.0526 15.9172 11.8757L19.6126 14.9553L21.5348 13.3535L18.3381 10.6894Z" fill="black"/>
<path d="M0.500244 10.294L2.9267 12.3161L4.87868 10.6894C5.12561 10.4837 5.12561 10.1044 4.87868 9.89865L2.9267 8.27197L0.500244 10.294Z" fill="black"/>
<path fill-rule="evenodd" clip-rule="evenodd" d="M7.36832 9.89864C7.61527 10.1044 7.61527 10.4837 7.36837 10.6894L4.17157 13.3535L6.09375 14.9553L9.78918 11.8757C10.7769 11.0526 10.7769 9.53552 9.78918 8.7124L6.09375 5.63281L4.17157 7.23463L7.36832 9.89864Z" fill="black"/>
</g>
<defs>
<clipPath id="clip0_1_449">
<rect width="140" height="20.5882" fill="white" transform="translate(-0.000366211)"/>
</clipPath>
</defs>
</svg>
