<svg width="140" height="26" viewBox="0 0 140 26" fill="none" xmlns="http://www.w3.org/2000/svg">
<g clip-path="url(#clip0_1_469)">
<path d="M7.73987 0L14.2277 5.54279C14.6129 5.87185 14.8349 6.35474 14.8349 6.86333V11.0407L8.34708 5.49788C7.96186 5.16882 7.73987 4.68592 7.73987 4.17731V0Z" fill="black"/>
<path d="M7.73987 25.112L14.2277 19.5691C14.6129 19.2401 14.8349 18.7572 14.8349 18.2486V14.0713L8.34708 19.6141C7.96186 19.9431 7.73987 20.426 7.73987 20.9346V25.112Z" fill="black"/>
<path d="M-0.000366211 5.84521L6.3992 11.2821C6.70946 11.5457 7.10241 11.6903 7.50834 11.6903H12.6693L6.28551 6.25466C5.97503 5.99028 5.58154 5.84521 5.1749 5.84521H-0.000366211Z" fill="black"/>
<path d="M-0.000366211 19.2675L6.35984 13.8337C6.67067 13.5681 7.06505 13.4224 7.47262 13.4224H12.6847L6.28513 18.8592C5.97486 19.1228 5.58196 19.2675 5.17597 19.2675H-0.000366211Z" fill="black"/>
<path d="M23.6498 0L17.162 5.54279C16.7768 5.87185 16.5548 6.35474 16.5548 6.86333V11.0407L23.0426 5.49788C23.4278 5.16882 23.6498 4.68592 23.6498 4.17731V0Z" fill="black"/>
<path d="M23.6498 25.112L17.162 19.5691C16.7768 19.2401 16.5548 18.7572 16.5548 18.2486V14.0713L23.0426 19.6141C23.4278 19.9431 23.6498 20.426 23.6498 20.9346V25.112Z" fill="black"/>
<path d="M31.39 5.84521L24.9905 11.2821C24.6802 11.5457 24.2873 11.6903 23.8813 11.6903H18.7203L25.1041 6.25466C25.4147 5.99028 25.8081 5.84521 26.2147 5.84521H31.39Z" fill="black"/>
<path d="M31.39 19.2675L25.0298 13.8337C24.719 13.5681 24.3246 13.4224 23.917 13.4224H18.705L25.1045 18.8592C25.4148 19.1228 25.8077 19.2675 26.2137 19.2675H31.39Z" fill="black"/>
<path d="M83.3564 6.69805C82.9414 6.69805 82.5936 6.55755 82.3124 6.27647C82.0311 5.99543 81.8911 5.64746 81.8911 5.23257C81.8911 4.81769 82.0311 4.46972 82.3124 4.18867C82.5936 3.90762 82.9414 3.76709 83.3564 3.76709C83.7582 3.76709 84.0997 3.90762 84.3804 4.18867C84.6616 4.46972 84.8022 4.81769 84.8022 5.23257C84.8022 5.64746 84.6616 5.99543 84.3804 6.27647C84.0997 6.55755 83.7582 6.69805 83.3564 6.69805Z" fill="black"/>
<path d="M84.4805 8.16357V19.225H82.1915V8.16357H84.4805Z" fill="black"/>
<path fill-rule="evenodd" clip-rule="evenodd" d="M90.659 8.50487C89.9898 8.85286 89.4605 9.28114 89.0725 9.78966V8.16359H86.7836V24.4846H89.0725V17.619C89.4875 18.1275 90.023 18.5558 90.6791 18.9038C91.3345 19.2383 92.0847 19.4057 92.9279 19.4057C93.8916 19.4057 94.7686 19.1648 95.5584 18.6829C96.3613 18.1878 96.9904 17.5052 97.4455 16.6353C97.9007 15.752 98.128 14.7549 98.128 13.6441C98.128 12.5333 97.9007 11.5496 97.4455 10.6931C96.9904 9.8365 96.3613 9.17404 95.5584 8.70564C94.7686 8.2238 93.8916 7.98291 92.9279 7.98291C92.0847 7.98291 91.3282 8.15694 90.659 8.50487ZM95.3173 11.6767C95.6387 12.2255 95.7988 12.8812 95.7988 13.6441C95.7988 14.407 95.6387 15.0761 95.3173 15.6516C95.009 16.2271 94.5941 16.6687 94.0724 16.9766C93.5638 17.271 93.0145 17.4182 92.4256 17.4182C91.8499 17.4182 91.3012 17.271 90.7795 16.9766C90.2704 16.6821 89.8554 16.2538 89.5346 15.6918C89.2264 15.1163 89.0725 14.4471 89.0725 13.6842C89.0725 12.9214 89.2264 12.2589 89.5346 11.6968C89.8554 11.1347 90.2704 10.7064 90.7795 10.412C91.3012 10.1176 91.8499 9.97035 92.4256 9.97035C93.0145 9.97035 93.5638 10.1176 94.0724 10.412C94.5941 10.6931 95.009 11.1146 95.3173 11.6767Z" fill="black"/>
<path d="M103.705 19.4057C102.834 19.4057 102.052 19.2517 101.355 18.9439C100.673 18.6227 100.13 18.1944 99.7293 17.6591C99.3275 17.1104 99.1134 16.5014 99.0864 15.8323H101.456C101.496 16.3007 101.717 16.6955 102.119 17.0167C102.534 17.3246 103.049 17.4784 103.664 17.4784C104.307 17.4784 104.803 17.358 105.15 17.1171C105.512 16.8628 105.693 16.5416 105.693 16.1535C105.693 15.7386 105.492 15.4308 105.09 15.23C104.702 15.0293 104.079 14.8084 103.223 14.5676C102.393 14.34 101.717 14.1192 101.195 13.9051C100.673 13.691 100.218 13.3631 99.8297 12.9214C99.4549 12.4797 99.2672 11.8976 99.2672 11.1748C99.2672 10.586 99.4411 10.0506 99.7896 9.56886C100.137 9.07365 100.633 8.68555 101.275 8.40448C101.931 8.12347 102.681 7.98291 103.524 7.98291C104.782 7.98291 105.793 8.30409 106.556 8.94652C107.333 9.57552 107.748 10.4387 107.801 11.5362H105.512C105.472 11.041 105.271 10.6462 104.909 10.3518C104.548 10.0574 104.059 9.91014 103.444 9.91014C102.841 9.91014 102.379 10.0239 102.058 10.2514C101.737 10.4789 101.576 10.78 101.576 11.1548C101.576 11.4492 101.684 11.6968 101.898 11.8976C102.112 12.0983 102.373 12.2589 102.681 12.3794C102.989 12.4865 103.444 12.627 104.046 12.8009C104.849 13.0151 105.505 13.2359 106.014 13.4634C106.536 13.6776 106.984 13.9988 107.359 14.4271C107.734 14.8553 107.928 15.4241 107.942 16.1334C107.942 16.7624 107.768 17.3246 107.419 17.8197C107.071 18.3149 106.576 18.703 105.933 18.9841C105.304 19.2651 104.561 19.4057 103.705 19.4057Z" fill="black"/>
<path d="M137.771 8.52495C137.088 8.16359 136.312 7.98291 135.442 7.98291C134.625 7.98291 133.862 8.18368 133.153 8.58516C132.443 8.97327 131.921 9.50194 131.587 10.1711C131.212 9.46176 130.676 8.91978 129.98 8.54504C129.284 8.17031 128.495 7.98291 127.611 7.98291C126.955 7.98291 126.339 8.11004 125.764 8.36436C125.188 8.61862 124.713 8.97327 124.338 9.4283V8.16359H122.049V19.225H124.338V13.0419C124.338 12.0514 124.586 11.2953 125.081 10.7734C125.59 10.238 126.272 9.97035 127.129 9.97035C127.985 9.97035 128.662 10.238 129.157 10.7734C129.652 11.2953 129.9 12.0514 129.9 13.0419V19.225H132.169V13.0419C132.169 12.0514 132.416 11.2953 132.912 10.7734C133.42 10.238 134.103 9.97035 134.96 9.97035C135.817 9.97035 136.493 10.238 136.988 10.7734C137.483 11.2953 137.731 12.0514 137.731 13.0419V19.225H140V12.7006C140 11.6968 139.799 10.8403 139.398 10.1309C139.009 9.42165 138.467 8.88632 137.771 8.52495Z" fill="black"/>
<path d="M119.732 19.225V8.16357H117.443V14.3267C117.443 15.317 117.188 16.0799 116.679 16.6152C116.184 17.1371 115.508 17.3981 114.651 17.3981C113.794 17.3981 113.119 17.1371 112.624 16.6152C112.128 16.0799 111.88 15.317 111.88 14.3267V8.16357H109.611V14.6679C109.611 15.6717 109.805 16.5282 110.194 17.2375C110.595 17.9468 111.138 18.4821 111.82 18.8435C112.516 19.2049 113.299 19.3855 114.169 19.3855C114.825 19.3855 115.441 19.2584 116.017 19.0041C116.606 18.7365 117.081 18.3751 117.443 17.9201V19.225H119.732Z" fill="black"/>
<path fill-rule="evenodd" clip-rule="evenodd" d="M72.0581 18.703C72.9013 19.1714 73.8449 19.4057 74.8889 19.4057C75.9468 19.4057 76.9104 19.1714 77.7806 18.703C78.6639 18.2212 79.3601 17.5454 79.8686 16.6754C80.3772 15.8055 80.6314 14.8084 80.6314 13.6842C80.6314 12.56 80.3841 11.563 79.8887 10.6931C79.3934 9.82313 78.7172 9.15395 77.8609 8.68555C77.004 8.21714 76.0472 7.98291 74.9894 7.98291C73.9321 7.98291 72.9747 8.21714 72.1178 8.68555C71.2615 9.15395 70.5853 9.82313 70.09 10.6931C69.5946 11.563 69.3473 12.56 69.3473 13.6842C69.3473 14.8218 69.5884 15.8256 70.0699 16.6955C70.552 17.5521 71.2144 18.2212 72.0581 18.703ZM76.5356 16.9967C76.0271 17.2777 75.4778 17.4182 74.8889 17.4182C73.9654 17.4182 73.1957 17.097 72.5798 16.4546C71.9778 15.7988 71.6764 14.8754 71.6764 13.6842C71.6764 12.8812 71.8233 12.2054 72.1178 11.6567C72.4129 11.0946 72.8077 10.673 73.3024 10.3919C73.8116 10.1109 74.3603 9.97035 74.9492 9.97035C75.5381 9.97035 76.0868 10.1109 76.5959 10.3919C77.1044 10.673 77.5125 11.0946 77.8207 11.6567C78.1284 12.2054 78.2822 12.8812 78.2822 13.6842C78.2822 14.4873 78.1215 15.1698 77.8007 15.7319C77.4792 16.294 77.0573 16.7156 76.5356 16.9967Z" fill="black"/>
<path fill-rule="evenodd" clip-rule="evenodd" d="M60.0029 18.7286C59.9873 18.7202 59.9718 18.7116 59.9563 18.703C59.113 18.2212 58.4504 17.5521 57.9685 16.6955C57.4866 15.8256 57.2456 14.8218 57.2456 13.6842C57.2456 12.56 57.4933 11.563 57.9885 10.6931C58.4838 9.82312 59.1598 9.15395 60.0165 8.68555C60.8733 8.21714 61.8304 7.98291 62.8879 7.98291C63.9451 7.98291 64.9025 8.21714 65.7595 8.68555C66.6158 9.15395 67.292 9.82312 67.7873 10.6931C68.2826 11.563 68.53 12.56 68.53 13.6842C68.53 14.8084 68.2757 15.8055 67.7672 16.6754C67.2587 17.5454 66.5624 18.2212 65.6791 18.703C64.9308 19.1058 64.1134 19.3355 63.2263 19.3918C64.313 19.8889 65.966 20.2903 66.8939 20.5156C67.2913 20.6121 67.5556 20.6763 67.5864 20.7019L67.5876 20.7023V22.9924H59.2482V20.7023H64.0537C62.8314 20.4262 61.1711 19.5201 60.0029 18.7286ZM62.7875 17.4182C63.3764 17.4182 63.9251 17.2777 64.4342 16.9966C64.9559 16.7156 65.3778 16.294 65.6992 15.7319C66.02 15.1698 66.1807 14.4873 66.1807 13.6842C66.1807 12.8812 66.0269 12.2054 65.7193 11.6567C65.4111 11.0946 65.003 10.673 64.4945 10.3919C63.9853 10.1109 63.4366 9.97035 62.8477 9.97035C62.2587 9.97035 61.7099 10.1109 61.2012 10.3919C60.7059 10.673 60.311 11.0946 60.0165 11.6567C59.722 12.2054 59.5748 12.8812 59.5748 13.6842C59.5748 14.8754 59.876 15.7988 60.4783 16.4546C61.0942 17.097 61.8638 17.4182 62.7875 17.4182Z" fill="black"/>
<path fill-rule="evenodd" clip-rule="evenodd" d="M47.8545 18.703C48.6978 19.1714 49.6415 19.4057 50.6857 19.4057C51.7431 19.4057 52.7069 19.1714 53.5771 18.703C54.4605 18.2212 55.1566 17.5454 55.6653 16.6754C56.174 15.8055 56.4283 14.8084 56.4283 13.6842C56.4283 12.56 56.1806 11.563 55.6854 10.6931C55.1901 9.82313 54.5141 9.15395 53.6574 8.68555C52.8007 8.21714 51.8435 7.98291 50.786 7.98291C49.7285 7.98291 48.7714 8.21714 47.9147 8.68555C47.058 9.15395 46.382 9.82313 45.8867 10.6931C45.3915 11.563 45.1438 12.56 45.1438 13.6842C45.1438 14.8218 45.3847 15.8256 45.8666 16.6955C46.3486 17.5521 47.0111 18.2212 47.8545 18.703ZM52.3321 16.9967C51.8235 17.2777 51.2746 17.4182 50.6857 17.4182C49.762 17.4182 48.9923 17.097 48.3765 16.4546C47.7742 15.7988 47.473 14.8754 47.473 13.6842C47.473 12.8812 47.6202 12.2054 47.9147 11.6567C48.2092 11.0946 48.6041 10.673 49.0994 10.3919C49.608 10.1109 50.1569 9.97035 50.7459 9.97035C51.3349 9.97035 51.8837 10.1109 52.3923 10.3919C52.9011 10.673 53.3093 11.0946 53.6172 11.6567C53.9251 12.2054 54.079 12.8812 54.079 13.6842C54.079 14.4873 53.9184 15.1698 53.5971 15.7319C53.2759 16.294 52.8542 16.7156 52.3321 16.9967Z" fill="black"/>
<path d="M39.9569 17.3777H44.6754V19.2247H37.6678V5.27246H39.9569V17.3777Z" fill="black"/>
</g>
<defs>
<clipPath id="clip0_1_469">
<rect width="140" height="25.1121" fill="white" transform="translate(-0.000366211)"/>
</clipPath>
</defs>
</svg>
