<svg width="134" height="31" viewBox="0 0 134 31" fill="none" xmlns="http://www.w3.org/2000/svg">
<path d="M0 30.1765H30.1765V4.23472e-08H0V30.1765ZM24.3683 12.1847H17.9918V5.80824H24.3683V12.1847ZM5.80706 5.80824H12.1871V17.9918H24.3683V24.3682H5.80706V5.80824ZM49.8271 4.23472e-08C46.8428 4.23472e-08 43.9257 0.884918 41.4445 2.54284C38.9632 4.20075 37.0293 6.55721 35.8873 9.31424C34.7453 12.0713 34.4466 15.1049 35.0287 18.0318C35.611 20.9586 37.0479 23.6471 39.158 25.7572C41.2681 27.8674 43.9566 29.3044 46.8834 29.8866C49.8104 30.4687 52.844 30.17 55.6011 29.028C58.3581 27.886 60.7145 25.9521 62.3725 23.4708C64.0304 20.9895 64.9153 18.0724 64.9153 15.0882C64.9106 11.088 63.3194 7.25299 60.4909 4.42441C57.6623 1.59582 53.8273 0.00467063 49.8271 4.23472e-08ZM49.8271 24.3682C47.9917 24.3682 46.1974 23.824 44.6713 22.8042C43.1453 21.7846 41.9558 20.3353 41.2534 18.6395C40.5511 16.9439 40.3673 15.078 40.7253 13.2778C41.0834 11.4776 41.9673 9.82412 43.2651 8.52628C44.563 7.22846 46.2165 6.34462 48.0166 5.98655C49.8167 5.62848 51.6826 5.81226 53.3784 6.51464C55.074 7.21701 56.5234 8.40646 57.5431 9.93259C58.5629 11.4586 59.1071 13.2528 59.1071 15.0882C59.1033 17.5484 58.1244 19.9066 56.3848 21.6461C54.6453 23.3856 52.2871 24.3645 49.8271 24.3682ZM118.908 4.23472e-08C115.924 -0.000223487 113.007 0.884482 110.525 2.54226C108.044 4.20004 106.11 6.55641 104.968 9.31341C103.826 12.0704 103.526 15.1042 104.109 18.0311C104.691 20.958 106.128 23.6466 108.238 25.7568C110.348 27.8671 113.036 29.3042 115.964 29.8865C118.889 30.4687 121.924 30.17 124.681 29.0281C127.438 27.8861 129.794 25.9522 131.452 23.4709C133.111 20.9896 133.995 18.0725 133.995 15.0882C133.991 11.0882 132.4 7.25337 129.572 4.42482C126.744 1.59627 122.908 0.00498828 118.908 4.23472e-08ZM118.908 24.3682C117.073 24.3685 115.279 23.8244 113.752 22.8048C112.226 21.7853 111.036 20.336 110.334 18.6404C109.631 16.9447 109.447 15.0787 109.805 13.2785C110.163 11.4784 111.047 9.82471 112.345 8.52671C113.642 7.22875 115.297 6.3448 117.096 5.98664C118.896 5.62847 120.762 5.81218 122.458 6.51453C124.154 7.21687 125.604 8.40631 126.624 9.93247C127.642 11.4586 128.187 13.2528 128.187 15.0882C128.184 17.5481 127.205 19.9061 125.465 21.6456C123.726 23.3852 121.368 24.3642 118.908 24.3682ZM84.3671 4.23472e-08C81.3829 4.23472e-08 78.4657 0.884918 75.9845 2.54284C73.5032 4.20075 71.5693 6.55721 70.4273 9.31424C69.2853 12.0713 68.9866 15.1049 69.5687 18.0318C70.151 20.9586 71.5879 23.6471 73.698 25.7572C75.8081 27.8674 78.4966 29.3044 81.4234 29.8866C84.3503 30.4687 87.384 30.17 90.1411 29.028C92.8981 27.886 95.2545 25.9521 96.9125 23.4708C98.5704 20.9895 99.4553 18.0724 99.4553 15.0882C99.4506 11.088 97.8594 7.25299 95.0309 4.42441C92.2023 1.59582 88.3673 0.00467063 84.3671 4.23472e-08ZM84.3671 24.3682C82.657 24.3691 80.98 23.8974 79.5211 23.0053C78.0623 22.1132 76.8782 20.8354 76.0997 19.3128C75.3213 17.7902 74.9786 16.0821 75.1097 14.3772C75.2407 12.6721 75.8403 11.0365 76.8423 9.65071C77.8443 8.26501 79.2097 7.18307 80.7877 6.52436C82.3658 5.86565 84.0952 5.65579 85.785 5.91793C87.4749 6.18008 89.0593 6.90404 90.3637 8.00991C91.668 9.11577 92.6414 10.5606 93.1765 12.1847H84.3671V17.9918H93.1765C92.5637 19.8451 91.383 21.4585 89.8017 22.6029C88.2205 23.7475 86.3191 24.3651 84.3671 24.3682Z" fill="black"/>
</svg>
