<svg width="140" height="25" viewBox="0 0 140 25" fill="none" xmlns="http://www.w3.org/2000/svg">
<path d="M53.8625 7.5918C53.8625 12.1311 53.8625 13.923 47.8407 13.923C53.8625 13.923 53.8625 15.7149 53.8625 20.2542C53.8625 15.7419 53.8625 13.923 59.7899 13.923C53.8625 13.923 53.8625 12.1041 53.8625 7.5918Z" fill="black"/>
<path fill-rule="evenodd" clip-rule="evenodd" d="M24.1723 24.0492C22.0897 24.0492 20.2588 23.6327 18.6796 22.7997C17.1176 21.9493 15.8941 20.7692 15.0091 19.2594C14.8665 19.0084 14.7356 18.7507 14.6165 18.4862L13.9171 23.6847H0.0421143V23.4245H0.0681703C0.692912 23.4245 1.1962 23.2596 1.57799 22.9299C1.95978 22.6001 2.15068 22.1229 2.15068 21.4981V6.50369C2.15068 5.879 1.95978 5.37566 1.57799 4.99387C1.1962 4.61208 0.692912 4.42119 0.0681703 4.42119H0.0421143V4.16085H8.34632V4.42119H8.24219C7.61737 4.42119 7.11409 4.61208 6.73233 4.99387C6.35052 5.37566 6.15964 5.879 6.15964 6.50369V21.6023C6.15964 22.1576 6.28981 22.5915 6.5501 22.9038C6.82777 23.1988 7.30502 23.3464 7.98185 23.3464H8.5285C10.0731 23.3464 11.3747 22.8692 12.4333 21.9146C13.4659 20.9836 14.1269 19.6813 14.4165 18.0075C13.9438 16.783 13.7075 15.4214 13.7075 13.9229C13.7075 11.8923 14.1413 10.1222 15.0091 8.61227C15.8941 7.08508 17.1176 5.90495 18.6796 5.07192C20.2588 4.22157 22.0897 3.79639 24.1723 3.79639C26.2047 3.79639 27.9891 4.20136 29.5256 5.0112C31.1646 4.20136 33.068 3.79639 35.2359 3.79639C35.9127 3.79639 36.468 3.82244 36.9019 3.87445C37.3531 3.90923 37.7523 3.95261 38.0994 4.00462C38.4465 4.05673 38.8283 4.10873 39.2448 4.16085C39.6787 4.19551 40.2167 4.21285 40.8588 4.21285L41.6398 9.41933H41.3794C41.067 7.77061 40.3642 6.47766 39.2709 5.5405C38.1949 4.60336 36.8498 4.13479 35.2359 4.13479C34.2467 4.13479 33.3442 4.36907 32.5286 4.83764C31.9913 5.14634 31.5066 5.53409 31.0748 6.00101C30.8738 6.21815 30.6842 6.45258 30.5061 6.7041C30.486 6.73246 30.466 6.76106 30.4462 6.78995C30.2787 7.0385 30.1217 7.30193 29.975 7.58027C29.782 7.94647 29.6069 8.33889 29.4499 8.75644C29.3849 8.92879 29.3231 9.10567 29.2643 9.28695C29.2038 9.4739 29.1464 9.66555 29.0924 9.86185C28.78 11.0593 28.6238 12.387 28.6238 13.8447C28.6238 15.1885 28.7462 16.4242 28.991 17.552L28.5773 18.7807C28.3608 19.4237 28.1016 19.9862 27.8039 20.4736C27.6206 20.7627 27.4266 21.0224 27.2226 21.2541L27.2031 21.2763C26.5588 20.6894 26.0084 20.0171 25.552 19.2594C24.6322 17.7321 24.1723 15.9359 24.1723 13.8707C24.1723 11.8576 24.6322 10.0962 25.552 8.5863C26.18 7.5553 26.978 6.68224 27.9458 5.96687C27.5546 5.51278 27.1212 5.1364 26.6453 4.83764C25.8991 4.36907 25.0747 4.13479 24.1723 4.13479C23.2698 4.13479 22.4455 4.36907 21.6992 4.83764C20.953 5.30621 20.3196 5.96568 19.7989 6.81616C19.261 7.66653 18.8444 8.69901 18.5494 9.91386C18.2717 11.1113 18.1329 12.439 18.1329 13.8968C18.1329 15.3546 18.2717 16.6822 18.5494 17.8796C18.8444 19.0771 19.261 20.101 19.7989 20.9514C20.3196 21.8019 20.953 22.4613 21.6992 22.9299C22.4455 23.3985 23.2698 23.6327 24.1723 23.6327C25.0747 23.6327 25.8991 23.3985 26.6453 22.9299C27.3916 22.4613 28.0337 21.8019 28.5717 20.9514C29.0924 20.101 29.4914 19.0771 29.7691 17.8796C30.0642 16.6822 30.2117 15.3546 30.2117 13.8968C30.2117 12.5787 30.0911 11.3671 29.8499 10.2618L30.2965 9.07433C30.5507 8.3984 30.8512 7.80838 31.194 7.29872C31.2855 7.16569 31.3801 7.03873 31.4777 6.91762C31.5625 6.81229 31.6495 6.71149 31.7388 6.61498L31.7584 6.59854C32.3627 7.18469 32.8797 7.85586 33.3095 8.61227C34.1946 10.1222 34.6371 11.8923 34.6371 13.9229C34.6371 15.9533 34.1946 17.7321 33.3095 19.2594C32.7212 20.283 31.9694 21.1551 31.054 21.8756C31.4383 22.2962 31.8604 22.6477 32.3203 22.9299C33.1013 23.3985 33.969 23.6327 34.9235 23.6327C35.6351 23.6327 36.3119 23.5113 36.954 23.2683C37.6135 23.0253 38.1168 22.7217 38.4638 22.3572V15.7191C38.4638 15.0943 38.273 14.5909 37.8912 14.2091C37.5093 13.8274 37.0061 13.6364 36.3813 13.6364H36.3033V13.3761H43.408C43.4797 11.5729 43.91 9.98505 44.699 8.61227C45.584 7.08508 46.8075 5.90495 48.3694 5.07192C49.9487 4.22157 51.7796 3.79639 53.8622 3.79639C55.9447 3.79639 57.767 4.22157 59.3288 5.07192C60.908 5.90495 62.1316 7.08508 62.9996 8.61227C63.5698 9.58507 63.9564 10.6659 64.159 11.8548V6.50369C64.159 5.879 63.9683 5.37566 63.5865 4.99387C63.2046 4.61208 62.7012 4.42119 62.0762 4.42119H62.0506V4.16085H77.7133C79.0496 4.17818 80.2125 4.41246 81.2014 4.8637C82.2082 5.2976 82.9887 5.90495 83.5445 6.68599C83.7536 6.97094 83.924 7.27453 84.0568 7.59659C84.2701 6.59127 84.7884 5.76705 85.6111 5.12404C86.7395 4.2389 88.2235 3.79639 90.0625 3.79639C90.5141 3.79639 90.8787 3.81372 91.1563 3.8485C91.2737 3.8623 91.3881 3.87743 91.5001 3.89399C91.6693 3.91905 91.8325 3.94721 91.9892 3.97856C92.2668 4.03068 92.5879 4.07406 92.9525 4.10873C93.3171 4.14351 93.7853 4.16085 94.3578 4.16085H102.582V4.42119H102.503C101.879 4.42119 101.376 4.61208 100.994 4.99387C100.612 5.37566 100.421 5.879 100.421 6.50369V16.8384C100.421 18.678 100.89 20.1358 101.827 21.2117C102.781 22.2704 104.066 22.7997 105.679 22.7997C107.311 22.7997 108.595 22.2617 109.532 21.1858C110.469 20.0924 110.938 18.6433 110.938 16.8384V6.89421C110.938 6.14798 110.712 5.55794 110.261 5.12404C109.81 4.69013 109.211 4.45585 108.465 4.42119V4.16085H117.056L123.408 18.8689L129.76 4.16085H134.628V4.42119C134.073 4.42119 133.604 4.58602 133.222 4.91581C132.84 5.24549 132.667 5.69672 132.701 6.26939L134.029 21.6803C134.115 22.2704 134.393 22.713 134.862 23.008C135.348 23.303 135.825 23.4505 136.294 23.4505V23.6847H128.224V23.4505C128.519 23.4505 128.822 23.3811 129.135 23.2422C129.447 23.1035 129.699 22.9038 129.89 22.6435C130.098 22.3832 130.176 22.0795 130.124 21.7324L128.848 7.36276L121.612 24.0492L114.323 7.33672L113.099 21.0296C113.03 21.7237 113.229 22.2878 113.698 22.7217C114.166 23.1555 114.739 23.3897 115.416 23.4245V23.6847H110.21V23.4245C110.869 23.3897 111.425 23.1468 111.876 22.6956C112.327 22.2443 112.587 21.6803 112.657 21.0035L113.958 6.60783C113.628 5.93101 113.212 5.40172 112.709 5.01993C112.623 4.94937 112.533 4.88512 112.438 4.82704C112.301 4.91272 112.174 5.01165 112.057 5.12404C111.606 5.55794 111.381 6.14798 111.381 6.89421V16.8384C111.381 18.2962 111.077 19.5631 110.469 20.639C109.879 21.7151 109.02 22.5567 107.892 23.1642C106.782 23.7542 105.454 24.0492 103.909 24.0492C102.382 24.0492 101.055 23.7542 99.9263 23.1642C98.7985 22.574 97.9216 21.741 97.2973 20.6651C96.6896 19.5717 96.3858 18.2962 96.3858 16.8384V6.50369C96.3858 5.879 96.1951 5.37566 95.8133 4.99387C95.4451 4.62588 94.9643 4.43532 94.371 4.42196L94.6182 9.41933H94.3578C94.1154 7.80528 93.5947 6.52973 92.7964 5.59261C91.9975 4.65547 91.0348 4.1869 89.9064 4.1869C89.1081 4.1869 88.4659 4.42119 87.9804 4.88975C87.5116 5.35832 87.2774 5.98313 87.2774 6.76404C87.2774 7.4408 87.4943 8.09165 87.928 8.71647C88.3796 9.32383 89.1516 10.0354 90.2448 10.8511L91.3642 11.6841C92.5099 12.5171 93.4124 13.2893 94.0719 14.0009C94.7487 14.6951 95.2342 15.372 95.5297 16.0314C95.8246 16.6909 95.9723 17.3937 95.9723 18.14C95.9723 19.2853 95.6858 20.3007 95.1127 21.1856C94.5402 22.0708 93.7419 22.765 92.7178 23.2683C91.7116 23.7542 90.5224 24.0145 89.1516 24.0492C88.7007 24.0492 88.3271 24.0319 88.0322 23.9972C87.7546 23.9624 87.477 23.919 87.1994 23.867C86.9218 23.8149 86.5834 23.7715 86.1842 23.7369C85.7851 23.7022 85.2382 23.6847 84.5442 23.6847L83.6327 16.9164H83.9454C84.2058 19.051 84.7956 20.6998 85.7154 21.8626C86.6525 23.008 87.8499 23.5807 89.3077 23.5807C90.3836 23.5807 91.26 23.277 91.9373 22.6695C92.6141 22.0621 92.9525 21.2724 92.9525 20.3007C92.9525 19.8841 92.8745 19.485 92.7178 19.1032C92.579 18.7214 92.3365 18.3136 91.9892 17.8796C91.6419 17.4459 91.1819 16.9772 90.6094 16.4739C90.0369 15.9533 89.325 15.372 88.4749 14.7298L87.4073 13.9229C86.1062 12.9336 85.2036 12.0485 84.7002 11.2676C84.5412 11.0209 84.4071 10.7673 84.2987 10.5067C84.1682 11.1365 83.9168 11.7112 83.5445 12.2308C82.9887 13.0117 82.1904 13.6278 81.1496 14.0789C80.1255 14.5129 78.9108 14.7298 77.5048 14.7298H75.1099V21.3419C75.1099 21.9667 75.3006 22.47 75.6824 22.8517C76.0643 23.2336 76.5677 23.4245 77.1927 23.4245H77.2445V23.6847H62.0506V23.4245H62.0762C62.7012 23.4245 63.2046 23.2336 63.5865 22.8517C63.9683 22.47 64.159 21.9667 64.159 21.3419V15.9942C63.9564 17.1871 63.5698 18.2754 62.9996 19.2594C62.1316 20.7692 60.908 21.9493 59.3288 22.7997C57.767 23.6327 55.9447 24.0492 53.8622 24.0492C51.7796 24.0492 49.9487 23.6327 48.3694 22.7997C46.8075 21.9493 45.584 20.7692 44.699 19.2594C43.8348 17.7384 43.4009 15.9681 43.3973 13.9479C43.2804 14.0219 43.1717 14.1089 43.0715 14.2091C42.6897 14.5909 42.4988 15.0943 42.4988 15.7191V22.3572C42.1517 22.7042 41.5964 23.008 40.8328 23.2683C40.0865 23.5113 39.2362 23.7022 38.2816 23.841C37.3445 23.9799 36.4073 24.0492 35.4702 24.0492C33.2048 24.0492 31.232 23.6481 29.5518 22.8456C28.0094 23.6481 26.2162 24.0492 24.1723 24.0492ZM56.3352 22.9299C55.589 23.3985 54.7646 23.6327 53.8622 23.6327C52.9597 23.6327 52.1354 23.3985 51.3891 22.9299C50.6429 22.4613 50.0095 21.8019 49.4888 20.9514C48.9509 20.101 48.5343 19.0771 48.2392 17.8796C47.9616 16.6822 47.8228 15.3546 47.8228 13.8968C47.8228 12.439 47.9616 11.1113 48.2392 9.91386C48.5343 8.69901 48.9509 7.66653 49.4888 6.81616C50.0095 5.96568 50.6429 5.30621 51.3891 4.83764C52.1354 4.36907 52.9597 4.13479 53.8622 4.13479C54.7646 4.13479 55.589 4.36907 56.3352 4.83764C57.0815 5.30621 57.7236 5.96568 58.2616 6.81616C58.7822 7.66653 59.1813 8.69901 59.459 9.91386C59.754 11.1113 59.9018 12.439 59.9018 13.8968C59.9018 15.3546 59.754 16.6822 59.459 17.8796C59.1813 19.0771 58.7822 20.101 58.2616 20.9514C57.7236 21.8019 57.0815 22.4613 56.3352 22.9299ZM70.5281 22.8517C70.2844 23.0957 69.9907 23.2618 69.6476 23.3499C69.3044 23.2618 69.0107 23.0957 68.7664 22.8517C68.3852 22.47 68.1939 21.9667 68.1939 21.3419V6.50369C68.1939 5.879 68.3852 5.37566 68.7664 4.99387C69.0107 4.74987 69.3044 4.58381 69.6476 4.49582C69.9907 4.58381 70.2844 4.74987 70.5281 4.99387C70.9099 5.37566 71.1012 5.879 71.1012 6.50369V21.3419C71.1012 21.9667 70.9099 22.47 70.5281 22.8517ZM76.6458 14.3914H75.1099V4.49924H76.6196C77.366 4.49924 78.0166 4.71619 78.5724 5.1501C79.1276 5.56655 79.553 6.14798 79.8479 6.89421C80.1601 7.64044 80.3162 8.4908 80.3162 9.4453C80.3162 10.3999 80.1601 11.2502 79.8479 11.9965C79.553 12.7427 79.1276 13.3327 78.5724 13.7666C78.0345 14.1832 77.3922 14.3914 76.6458 14.3914Z" fill="black"/>
<path d="M139.722 2.02815C139.722 3.02719 138.912 3.83707 137.913 3.83707C136.914 3.83707 136.104 3.02719 136.104 2.02815C136.104 1.02912 136.914 0.219238 137.913 0.219238C138.912 0.219238 139.722 1.02912 139.722 2.02815Z" fill="black"/>
</svg>
